<svg width="372" height="66" viewBox="0 0 372 66" fill="none" xmlns="http://www.w3.org/2000/svg">
<path d="M4.38867 15H1.16602L1.18555 13.9746H4.38867C5.41081 13.9746 6.28971 13.7467 7.02539 13.291C7.76758 12.8288 8.34049 12.1908 8.74414 11.377C9.14779 10.5632 9.34961 9.61914 9.34961 8.54492V7.2168C9.34961 6.39648 9.23242 5.6543 8.99805 4.99023C8.77018 4.32617 8.44141 3.75977 8.01172 3.29102C7.58203 2.81576 7.06771 2.45117 6.46875 2.19727C5.8763 1.94336 5.21224 1.81641 4.47656 1.81641H1.10742V0.78125H4.47656C5.36198 0.78125 6.17253 0.934245 6.9082 1.24023C7.65039 1.53971 8.29167 1.97591 8.83203 2.54883C9.37891 3.11523 9.79883 3.79557 10.0918 4.58984C10.3913 5.38411 10.541 6.26953 10.541 7.24609V8.54492C10.541 9.52148 10.3913 10.4069 10.0918 11.2012C9.79883 11.9954 9.37891 12.6758 8.83203 13.2422C8.28516 13.8086 7.63737 14.2448 6.88867 14.5508C6.13997 14.8503 5.30664 15 4.38867 15ZM1.70312 0.78125V15H0.501953V0.78125H1.70312ZM14.6328 4.43359V15H13.4707V4.43359H14.6328ZM13.2656 1.37695C13.2656 1.1556 13.334 0.970052 13.4707 0.820312C13.6139 0.664062 13.8092 0.585938 14.0566 0.585938C14.304 0.585938 14.4993 0.664062 14.6426 0.820312C14.7923 0.970052 14.8672 1.1556 14.8672 1.37695C14.8672 1.5918 14.7923 1.77734 14.6426 1.93359C14.4993 2.08333 14.304 2.1582 14.0566 2.1582C13.8092 2.1582 13.6139 2.08333 13.4707 1.93359C13.334 1.77734 13.2656 1.5918 13.2656 1.37695ZM24.7793 4.43359H25.8633V14.8145C25.8633 15.7324 25.6875 16.5202 25.3359 17.1777C24.9909 17.8353 24.4993 18.3398 23.8613 18.6914C23.2298 19.043 22.4844 19.2188 21.625 19.2188C21.1888 19.2188 20.7396 19.1504 20.2773 19.0137C19.8216 18.8835 19.3887 18.6816 18.9785 18.4082C18.5749 18.1413 18.2298 17.8092 17.9434 17.4121L18.5977 16.6992C19.0273 17.2201 19.4863 17.6009 19.9746 17.8418C20.4629 18.0892 20.9902 18.2129 21.5566 18.2129C22.2272 18.2129 22.7936 18.0794 23.2559 17.8125C23.7246 17.5456 24.0794 17.1615 24.3203 16.6602C24.5677 16.1589 24.6914 15.5566 24.6914 14.8535V6.75781L24.7793 4.43359ZM17.3574 9.82422V9.61914C17.3574 8.79883 17.4486 8.0599 17.6309 7.40234C17.8197 6.73828 18.0898 6.17188 18.4414 5.70312C18.793 5.22786 19.2194 4.86654 19.7207 4.61914C20.2285 4.36523 20.8014 4.23828 21.4395 4.23828C22.0514 4.23828 22.5951 4.33919 23.0703 4.54102C23.5456 4.74284 23.9557 5.03255 24.3008 5.41016C24.6458 5.78776 24.9225 6.23698 25.1309 6.75781C25.3457 7.27865 25.502 7.85807 25.5996 8.49609V11.1035C25.5215 11.7025 25.3783 12.2526 25.1699 12.7539C24.9616 13.2487 24.6849 13.6816 24.3398 14.0527C23.9948 14.4173 23.5781 14.7005 23.0898 14.9023C22.6081 15.0977 22.0514 15.1953 21.4199 15.1953C20.7884 15.1953 20.222 15.0651 19.7207 14.8047C19.2194 14.5443 18.793 14.1764 18.4414 13.7012C18.0898 13.2194 17.8197 12.6497 17.6309 11.9922C17.4486 11.3346 17.3574 10.612 17.3574 9.82422ZM18.5293 9.61914V9.82422C18.5293 10.4427 18.5911 11.0156 18.7148 11.543C18.8385 12.0703 19.0273 12.5293 19.2812 12.9199C19.5352 13.3105 19.8574 13.6165 20.248 13.8379C20.6387 14.0592 21.0977 14.1699 21.625 14.1699C22.2956 14.1699 22.8587 14.043 23.3145 13.7891C23.7702 13.5286 24.1315 13.1868 24.3984 12.7637C24.6654 12.334 24.8607 11.8652 24.9844 11.3574V8.32031C24.9128 7.97526 24.8021 7.6237 24.6523 7.26562C24.5091 6.90755 24.3073 6.57878 24.0469 6.2793C23.793 5.97331 23.4674 5.72917 23.0703 5.54688C22.6797 5.35807 22.2044 5.26367 21.6445 5.26367C21.1107 5.26367 20.6452 5.37435 20.248 5.5957C19.8574 5.81706 19.5352 6.1263 19.2812 6.52344C19.0273 6.91406 18.8385 7.37305 18.7148 7.90039C18.5911 8.42773 18.5293 9.00065 18.5293 9.61914ZM30.2188 4.43359V15H29.0566V4.43359H30.2188ZM28.8516 1.37695C28.8516 1.1556 28.9199 0.970052 29.0566 0.820312C29.1999 0.664062 29.3952 0.585938 29.6426 0.585938C29.89 0.585938 30.0853 0.664062 30.2285 0.820312C30.3783 0.970052 30.4531 1.1556 30.4531 1.37695C30.4531 1.5918 30.3783 1.77734 30.2285 1.93359C30.0853 2.08333 29.89 2.1582 29.6426 2.1582C29.3952 2.1582 29.1999 2.08333 29.0566 1.93359C28.9199 1.77734 28.8516 1.5918 28.8516 1.37695ZM37.4062 4.43359V5.39062H32.1133V4.43359H37.4062ZM34.0566 1.71875H35.2188V12.4316C35.2188 12.9199 35.2839 13.2878 35.4141 13.5352C35.5443 13.7826 35.7135 13.9486 35.9219 14.0332C36.1302 14.1178 36.3548 14.1602 36.5957 14.1602C36.7715 14.1602 36.9408 14.1504 37.1035 14.1309C37.2663 14.1048 37.4128 14.0788 37.543 14.0527L37.5918 15.0391C37.4486 15.0846 37.263 15.1204 37.0352 15.1465C36.8073 15.179 36.5794 15.1953 36.3516 15.1953C35.9023 15.1953 35.5052 15.1139 35.1602 14.9512C34.8151 14.7819 34.5449 14.4954 34.3496 14.0918C34.1543 13.6816 34.0566 13.125 34.0566 12.4219V1.71875ZM46.2832 13.1055V7.65625C46.2832 7.15495 46.179 6.72201 45.9707 6.35742C45.7624 5.99284 45.4564 5.71289 45.0527 5.51758C44.6491 5.32227 44.151 5.22461 43.5586 5.22461C43.0117 5.22461 42.5234 5.32227 42.0938 5.51758C41.6706 5.70638 41.3353 5.96354 41.0879 6.28906C40.847 6.60807 40.7266 6.96289 40.7266 7.35352L39.5547 7.34375C39.5547 6.94661 39.6523 6.5625 39.8477 6.19141C40.043 5.82031 40.3197 5.48828 40.6777 5.19531C41.0358 4.90234 41.4622 4.67122 41.957 4.50195C42.4583 4.32617 43.0085 4.23828 43.6074 4.23828C44.3626 4.23828 45.0267 4.36523 45.5996 4.61914C46.179 4.87305 46.6315 5.25391 46.957 5.76172C47.2826 6.26953 47.4453 6.90755 47.4453 7.67578V12.7832C47.4453 13.1478 47.4714 13.5254 47.5234 13.916C47.582 14.3066 47.6634 14.6289 47.7676 14.8828V15H46.5273C46.4492 14.7656 46.3874 14.4727 46.3418 14.1211C46.3027 13.763 46.2832 13.4245 46.2832 13.1055ZM46.5566 8.84766L46.5762 9.74609H44.2812C43.6823 9.74609 43.1452 9.80143 42.6699 9.91211C42.2012 10.0163 41.804 10.1725 41.4785 10.3809C41.153 10.5827 40.9023 10.8268 40.7266 11.1133C40.5573 11.3997 40.4727 11.7253 40.4727 12.0898C40.4727 12.4674 40.5671 12.8125 40.7559 13.125C40.9512 13.4375 41.2246 13.6882 41.5762 13.877C41.9342 14.0592 42.3574 14.1504 42.8457 14.1504C43.4967 14.1504 44.0697 14.0299 44.5645 13.7891C45.0658 13.5482 45.4792 13.2324 45.8047 12.8418C46.1302 12.4512 46.3483 12.0247 46.459 11.5625L46.9668 12.2363C46.8822 12.5618 46.7259 12.8971 46.498 13.2422C46.2767 13.5807 45.987 13.8997 45.6289 14.1992C45.2708 14.4922 44.8477 14.7331 44.3594 14.9219C43.8776 15.1042 43.3307 15.1953 42.7188 15.1953C42.0286 15.1953 41.4264 15.0651 40.9121 14.8047C40.4043 14.5443 40.0072 14.1895 39.7207 13.7402C39.4408 13.2845 39.3008 12.7702 39.3008 12.1973C39.3008 11.6764 39.4115 11.2109 39.6328 10.8008C39.8542 10.3841 40.1732 10.0326 40.5898 9.74609C41.013 9.45312 41.5208 9.23177 42.1133 9.08203C42.7122 8.92578 43.3828 8.84766 44.125 8.84766H46.5566ZM51.8789 0V15H50.7168V0H51.8789ZM61.1074 6.46484V19.0625H59.9355V4.43359H61.0293L61.1074 6.46484ZM68.4512 9.61914V9.82422C68.4512 10.612 68.36 11.3346 68.1777 11.9922C67.9954 12.6497 67.7318 13.2194 67.3867 13.7012C67.0482 14.1764 66.6283 14.5443 66.127 14.8047C65.6257 15.0651 65.056 15.1953 64.418 15.1953C63.7865 15.1953 63.2233 15.0977 62.7285 14.9023C62.2337 14.707 61.8073 14.4303 61.4492 14.0723C61.0977 13.7077 60.8145 13.2845 60.5996 12.8027C60.3913 12.3145 60.2448 11.7806 60.1602 11.2012V8.49609C60.2578 7.85807 60.4173 7.27865 60.6387 6.75781C60.86 6.23698 61.1432 5.78776 61.4883 5.41016C61.8398 5.03255 62.2565 4.74284 62.7383 4.54102C63.2201 4.33919 63.7702 4.23828 64.3887 4.23828C65.0332 4.23828 65.6061 4.36523 66.1074 4.61914C66.6152 4.86654 67.0417 5.22786 67.3867 5.70312C67.7383 6.17188 68.002 6.73828 68.1777 7.40234C68.36 8.0599 68.4512 8.79883 68.4512 9.61914ZM67.2793 9.82422V9.61914C67.2793 9.00065 67.2142 8.42773 67.084 7.90039C66.9603 7.37305 66.7682 6.91406 66.5078 6.52344C66.2539 6.1263 65.9284 5.81706 65.5312 5.5957C65.1406 5.37435 64.6751 5.26367 64.1348 5.26367C63.5749 5.26367 63.0964 5.35807 62.6992 5.54688C62.3086 5.72917 61.9831 5.97331 61.7227 6.2793C61.4622 6.57878 61.2572 6.90755 61.1074 7.26562C60.9577 7.6237 60.847 7.97526 60.7754 8.32031V11.4355C60.8991 11.9303 61.0977 12.3893 61.3711 12.8125C61.6445 13.2292 62.0091 13.5645 62.4648 13.8184C62.9271 14.0658 63.4902 14.1895 64.1543 14.1895C64.6882 14.1895 65.1504 14.0788 65.541 13.8574C65.9316 13.6361 66.2539 13.3268 66.5078 12.9297C66.7682 12.5326 66.9603 12.0703 67.084 11.543C67.2142 11.0156 67.2793 10.4427 67.2793 9.82422ZM72.2109 6.18164V15H71.0488V4.43359H72.1816L72.2109 6.18164ZM75.9512 4.35547L75.9219 5.42969C75.7917 5.41016 75.6647 5.39388 75.541 5.38086C75.4173 5.36784 75.2839 5.36133 75.1406 5.36133C74.6328 5.36133 74.1868 5.45573 73.8027 5.64453C73.4251 5.82682 73.1061 6.08398 72.8457 6.41602C72.5853 6.74154 72.3867 7.12565 72.25 7.56836C72.1133 8.00456 72.0352 8.47331 72.0156 8.97461L71.5859 9.14062C71.5859 8.45052 71.6576 7.80924 71.8008 7.2168C71.944 6.62435 72.1621 6.10677 72.4551 5.66406C72.7546 5.21484 73.1289 4.86654 73.5781 4.61914C74.0339 4.36523 74.5677 4.23828 75.1797 4.23828C75.3294 4.23828 75.4759 4.2513 75.6191 4.27734C75.7689 4.29688 75.8796 4.32292 75.9512 4.35547ZM76.9473 9.88281V9.56055C76.9473 8.79232 77.0579 8.08268 77.2793 7.43164C77.5007 6.7806 77.8164 6.21745 78.2266 5.74219C78.6432 5.26693 79.1413 4.89909 79.7207 4.63867C80.3001 4.37174 80.9447 4.23828 81.6543 4.23828C82.3704 4.23828 83.0182 4.37174 83.5977 4.63867C84.1771 4.89909 84.6751 5.26693 85.0918 5.74219C85.5085 6.21745 85.8275 6.7806 86.0488 7.43164C86.2702 8.08268 86.3809 8.79232 86.3809 9.56055V9.88281C86.3809 10.651 86.2702 11.3607 86.0488 12.0117C85.8275 12.6562 85.5085 13.2161 85.0918 13.6914C84.6816 14.1667 84.1868 14.5378 83.6074 14.8047C83.028 15.0651 82.3835 15.1953 81.6738 15.1953C80.9577 15.1953 80.3099 15.0651 79.7305 14.8047C79.151 14.5378 78.653 14.1667 78.2363 13.6914C77.8197 13.2161 77.5007 12.6562 77.2793 12.0117C77.0579 11.3607 76.9473 10.651 76.9473 9.88281ZM78.1094 9.56055V9.88281C78.1094 10.4622 78.1875 11.0124 78.3438 11.5332C78.5 12.0475 78.7279 12.5065 79.0273 12.9102C79.3268 13.3073 79.6979 13.6198 80.1406 13.8477C80.5833 14.0755 81.0944 14.1895 81.6738 14.1895C82.2467 14.1895 82.7513 14.0755 83.1875 13.8477C83.6302 13.6198 84.0013 13.3073 84.3008 12.9102C84.6003 12.5065 84.8249 12.0475 84.9746 11.5332C85.1309 11.0124 85.209 10.4622 85.209 9.88281V9.56055C85.209 8.98763 85.1309 8.44401 84.9746 7.92969C84.8249 7.41536 84.597 6.95638 84.291 6.55273C83.9915 6.14909 83.6204 5.83008 83.1777 5.5957C82.735 5.36133 82.2272 5.24414 81.6543 5.24414C81.0814 5.24414 80.5736 5.36133 80.1309 5.5957C79.6947 5.83008 79.3236 6.14909 79.0176 6.55273C78.7181 6.95638 78.4902 7.41536 78.334 7.92969C78.1842 8.44401 78.1094 8.98763 78.1094 9.56055ZM95.668 12.9492V0H96.8398V15H95.7461L95.668 12.9492ZM88.334 9.82422V9.61914C88.334 8.79883 88.4284 8.0599 88.6172 7.40234C88.806 6.73828 89.0762 6.17188 89.4277 5.70312C89.7858 5.22786 90.2155 4.86654 90.7168 4.61914C91.2181 4.36523 91.7845 4.23828 92.416 4.23828C93.0345 4.23828 93.5814 4.33919 94.0566 4.54102C94.5319 4.74284 94.9388 5.03255 95.2773 5.41016C95.6224 5.78776 95.8991 6.23698 96.1074 6.75781C96.3223 7.27865 96.4785 7.85807 96.5762 8.49609V11.1035C96.498 11.7025 96.3548 12.2526 96.1465 12.7539C95.9382 13.2487 95.6615 13.6816 95.3164 14.0527C94.9714 14.4173 94.5547 14.7005 94.0664 14.9023C93.5846 15.0977 93.028 15.1953 92.3965 15.1953C91.7715 15.1953 91.2083 15.0651 90.707 14.8047C90.2057 14.5443 89.7793 14.1764 89.4277 13.7012C89.0762 13.2194 88.806 12.6497 88.6172 11.9922C88.4284 11.3346 88.334 10.612 88.334 9.82422ZM89.5059 9.61914V9.82422C89.5059 10.4427 89.5677 11.0156 89.6914 11.543C89.8151 12.0703 90.0039 12.5293 90.2578 12.9199C90.5117 13.3105 90.834 13.6165 91.2246 13.8379C91.6152 14.0592 92.0775 14.1699 92.6113 14.1699C93.2819 14.1699 93.8451 14.043 94.3008 13.7891C94.7565 13.5286 95.1211 13.1868 95.3945 12.7637C95.668 12.334 95.8665 11.8652 95.9902 11.3574V8.32031C95.9121 7.97526 95.7982 7.6237 95.6484 7.26562C95.4987 6.90755 95.2936 6.57878 95.0332 6.2793C94.7793 5.97331 94.4538 5.72917 94.0566 5.54688C93.666 5.35807 93.1908 5.26367 92.6309 5.26367C92.0905 5.26367 91.625 5.37435 91.2344 5.5957C90.8438 5.81706 90.5182 6.1263 90.2578 6.52344C90.0039 6.91406 89.8151 7.37305 89.6914 7.90039C89.5677 8.42773 89.5059 9.00065 89.5059 9.61914ZM106.684 12.5586V4.43359H107.855V15H106.732L106.684 12.5586ZM106.898 10.6055L107.504 10.5859C107.504 11.25 107.426 11.862 107.27 12.4219C107.113 12.9818 106.869 13.4701 106.537 13.8867C106.205 14.3034 105.775 14.6257 105.248 14.8535C104.721 15.0814 104.086 15.1953 103.344 15.1953C102.829 15.1953 102.357 15.1237 101.928 14.9805C101.505 14.8307 101.14 14.5964 100.834 14.2773C100.528 13.9583 100.29 13.5449 100.121 13.0371C99.9583 12.5293 99.877 11.9141 99.877 11.1914V4.43359H101.039V11.2109C101.039 11.7773 101.101 12.2493 101.225 12.627C101.355 13.0046 101.531 13.3073 101.752 13.5352C101.98 13.763 102.24 13.9258 102.533 14.0234C102.826 14.1211 103.142 14.1699 103.48 14.1699C104.34 14.1699 105.017 14.0039 105.512 13.6719C106.013 13.3398 106.368 12.9036 106.576 12.3633C106.791 11.8164 106.898 11.2305 106.898 10.6055ZM114.809 14.1895C115.303 14.1895 115.766 14.0983 116.195 13.916C116.632 13.7272 116.99 13.4505 117.27 13.0859C117.556 12.7148 117.719 12.2624 117.758 11.7285H118.871C118.839 12.3991 118.633 12.998 118.256 13.5254C117.885 14.0462 117.396 14.4564 116.791 14.7559C116.192 15.0488 115.531 15.1953 114.809 15.1953C114.073 15.1953 113.422 15.0618 112.855 14.7949C112.296 14.528 111.827 14.1569 111.449 13.6816C111.072 13.1999 110.785 12.64 110.59 12.002C110.401 11.3574 110.307 10.6641 110.307 9.92188V9.51172C110.307 8.76953 110.401 8.07943 110.59 7.44141C110.785 6.79688 111.072 6.23698 111.449 5.76172C111.827 5.27995 112.296 4.9056 112.855 4.63867C113.415 4.37174 114.063 4.23828 114.799 4.23828C115.554 4.23828 116.231 4.39128 116.83 4.69727C117.436 5.00326 117.917 5.4362 118.275 5.99609C118.64 6.55599 118.839 7.22005 118.871 7.98828H117.758C117.725 7.42188 117.576 6.93359 117.309 6.52344C117.042 6.11328 116.69 5.79753 116.254 5.57617C115.818 5.35482 115.333 5.24414 114.799 5.24414C114.2 5.24414 113.689 5.36133 113.266 5.5957C112.842 5.82357 112.497 6.13932 112.23 6.54297C111.97 6.9401 111.778 7.39583 111.654 7.91016C111.531 8.41797 111.469 8.95182 111.469 9.51172V9.92188C111.469 10.4883 111.527 11.0286 111.645 11.543C111.768 12.0508 111.96 12.5033 112.221 12.9004C112.488 13.2975 112.833 13.6133 113.256 13.8477C113.686 14.0755 114.203 14.1895 114.809 14.1895ZM125.219 4.43359V5.39062H119.926V4.43359H125.219ZM121.869 1.71875H123.031V12.4316C123.031 12.9199 123.096 13.2878 123.227 13.5352C123.357 13.7826 123.526 13.9486 123.734 14.0332C123.943 14.1178 124.167 14.1602 124.408 14.1602C124.584 14.1602 124.753 14.1504 124.916 14.1309C125.079 14.1048 125.225 14.0788 125.355 14.0527L125.404 15.0391C125.261 15.0846 125.076 15.1204 124.848 15.1465C124.62 15.179 124.392 15.1953 124.164 15.1953C123.715 15.1953 123.318 15.1139 122.973 14.9512C122.628 14.7819 122.357 14.4954 122.162 14.0918C121.967 13.6816 121.869 13.125 121.869 12.4219V1.71875ZM138.979 13.1055V7.65625C138.979 7.15495 138.874 6.72201 138.666 6.35742C138.458 5.99284 138.152 5.71289 137.748 5.51758C137.344 5.32227 136.846 5.22461 136.254 5.22461C135.707 5.22461 135.219 5.32227 134.789 5.51758C134.366 5.70638 134.031 5.96354 133.783 6.28906C133.542 6.60807 133.422 6.96289 133.422 7.35352L132.25 7.34375C132.25 6.94661 132.348 6.5625 132.543 6.19141C132.738 5.82031 133.015 5.48828 133.373 5.19531C133.731 4.90234 134.158 4.67122 134.652 4.50195C135.154 4.32617 135.704 4.23828 136.303 4.23828C137.058 4.23828 137.722 4.36523 138.295 4.61914C138.874 4.87305 139.327 5.25391 139.652 5.76172C139.978 6.26953 140.141 6.90755 140.141 7.67578V12.7832C140.141 13.1478 140.167 13.5254 140.219 13.916C140.277 14.3066 140.359 14.6289 140.463 14.8828V15H139.223C139.145 14.7656 139.083 14.4727 139.037 14.1211C138.998 13.763 138.979 13.4245 138.979 13.1055ZM139.252 8.84766L139.271 9.74609H136.977C136.378 9.74609 135.84 9.80143 135.365 9.91211C134.896 10.0163 134.499 10.1725 134.174 10.3809C133.848 10.5827 133.598 10.8268 133.422 11.1133C133.253 11.3997 133.168 11.7253 133.168 12.0898C133.168 12.4674 133.262 12.8125 133.451 13.125C133.646 13.4375 133.92 13.6882 134.271 13.877C134.63 14.0592 135.053 14.1504 135.541 14.1504C136.192 14.1504 136.765 14.0299 137.26 13.7891C137.761 13.5482 138.174 13.2324 138.5 12.8418C138.826 12.4512 139.044 12.0247 139.154 11.5625L139.662 12.2363C139.577 12.5618 139.421 12.8971 139.193 13.2422C138.972 13.5807 138.682 13.8997 138.324 14.1992C137.966 14.4922 137.543 14.7331 137.055 14.9219C136.573 15.1042 136.026 15.1953 135.414 15.1953C134.724 15.1953 134.122 15.0651 133.607 14.8047C133.1 14.5443 132.702 14.1895 132.416 13.7402C132.136 13.2845 131.996 12.7702 131.996 12.1973C131.996 11.6764 132.107 11.2109 132.328 10.8008C132.549 10.3841 132.868 10.0326 133.285 9.74609C133.708 9.45312 134.216 9.23177 134.809 9.08203C135.408 8.92578 136.078 8.84766 136.82 8.84766H139.252ZM150.229 4.43359H151.312V14.8145C151.312 15.7324 151.137 16.5202 150.785 17.1777C150.44 17.8353 149.949 18.3398 149.311 18.6914C148.679 19.043 147.934 19.2188 147.074 19.2188C146.638 19.2188 146.189 19.1504 145.727 19.0137C145.271 18.8835 144.838 18.6816 144.428 18.4082C144.024 18.1413 143.679 17.8092 143.393 17.4121L144.047 16.6992C144.477 17.2201 144.936 17.6009 145.424 17.8418C145.912 18.0892 146.439 18.2129 147.006 18.2129C147.676 18.2129 148.243 18.0794 148.705 17.8125C149.174 17.5456 149.529 17.1615 149.77 16.6602C150.017 16.1589 150.141 15.5566 150.141 14.8535V6.75781L150.229 4.43359ZM142.807 9.82422V9.61914C142.807 8.79883 142.898 8.0599 143.08 7.40234C143.269 6.73828 143.539 6.17188 143.891 5.70312C144.242 5.22786 144.669 4.86654 145.17 4.61914C145.678 4.36523 146.251 4.23828 146.889 4.23828C147.501 4.23828 148.044 4.33919 148.52 4.54102C148.995 4.74284 149.405 5.03255 149.75 5.41016C150.095 5.78776 150.372 6.23698 150.58 6.75781C150.795 7.27865 150.951 7.85807 151.049 8.49609V11.1035C150.971 11.7025 150.827 12.2526 150.619 12.7539C150.411 13.2487 150.134 13.6816 149.789 14.0527C149.444 14.4173 149.027 14.7005 148.539 14.9023C148.057 15.0977 147.501 15.1953 146.869 15.1953C146.238 15.1953 145.671 15.0651 145.17 14.8047C144.669 14.5443 144.242 14.1764 143.891 13.7012C143.539 13.2194 143.269 12.6497 143.08 11.9922C142.898 11.3346 142.807 10.612 142.807 9.82422ZM143.979 9.61914V9.82422C143.979 10.4427 144.04 11.0156 144.164 11.543C144.288 12.0703 144.477 12.5293 144.73 12.9199C144.984 13.3105 145.307 13.6165 145.697 13.8379C146.088 14.0592 146.547 14.1699 147.074 14.1699C147.745 14.1699 148.308 14.043 148.764 13.7891C149.219 13.5286 149.581 13.1868 149.848 12.7637C150.115 12.334 150.31 11.8652 150.434 11.3574V8.32031C150.362 7.97526 150.251 7.6237 150.102 7.26562C149.958 6.90755 149.757 6.57878 149.496 6.2793C149.242 5.97331 148.917 5.72917 148.52 5.54688C148.129 5.35807 147.654 5.26367 147.094 5.26367C146.56 5.26367 146.094 5.37435 145.697 5.5957C145.307 5.81706 144.984 6.1263 144.73 6.52344C144.477 6.91406 144.288 7.37305 144.164 7.90039C144.04 8.42773 143.979 9.00065 143.979 9.61914ZM158.451 15.1953C157.761 15.1953 157.126 15.0684 156.547 14.8145C155.974 14.5605 155.473 14.2025 155.043 13.7402C154.62 13.278 154.291 12.7311 154.057 12.0996C153.829 11.4616 153.715 10.765 153.715 10.0098V9.58984C153.715 8.77604 153.835 8.04036 154.076 7.38281C154.317 6.72526 154.649 6.16211 155.072 5.69336C155.495 5.22461 155.977 4.86654 156.518 4.61914C157.064 4.36523 157.637 4.23828 158.236 4.23828C158.907 4.23828 159.503 4.35872 160.023 4.59961C160.544 4.83398 160.98 5.16927 161.332 5.60547C161.69 6.03516 161.96 6.54622 162.143 7.13867C162.325 7.72461 162.416 8.3724 162.416 9.08203V9.79492H154.418V8.79883H161.254V8.66211C161.241 8.06966 161.12 7.51628 160.893 7.00195C160.671 6.48112 160.339 6.05794 159.896 5.73242C159.454 5.4069 158.9 5.24414 158.236 5.24414C157.742 5.24414 157.286 5.34831 156.869 5.55664C156.459 5.76497 156.104 6.06445 155.805 6.45508C155.512 6.83919 155.284 7.29818 155.121 7.83203C154.965 8.35938 154.887 8.94531 154.887 9.58984V10.0098C154.887 10.5957 154.971 11.1426 155.141 11.6504C155.316 12.1517 155.564 12.5944 155.883 12.9785C156.208 13.3626 156.592 13.6621 157.035 13.877C157.478 14.0918 157.966 14.1992 158.5 14.1992C159.125 14.1992 159.678 14.0853 160.16 13.8574C160.642 13.623 161.075 13.2552 161.459 12.7539L162.191 13.3203C161.964 13.6589 161.677 13.9714 161.332 14.2578C160.993 14.5443 160.587 14.7721 160.111 14.9414C159.636 15.1107 159.083 15.1953 158.451 15.1953ZM165.883 6.68945V15H164.721V4.43359H165.834L165.883 6.68945ZM165.619 9.0625L165.102 8.76953C165.141 8.14453 165.268 7.55859 165.482 7.01172C165.697 6.46484 165.987 5.98307 166.352 5.56641C166.723 5.14974 167.156 4.82422 167.65 4.58984C168.152 4.35547 168.705 4.23828 169.311 4.23828C169.838 4.23828 170.31 4.3099 170.727 4.45312C171.143 4.59635 171.498 4.82422 171.791 5.13672C172.084 5.44922 172.305 5.84961 172.455 6.33789C172.611 6.82617 172.689 7.42188 172.689 8.125V15H171.518V8.11523C171.518 7.38607 171.417 6.81641 171.215 6.40625C171.013 5.98958 170.727 5.69336 170.355 5.51758C169.984 5.3418 169.545 5.25391 169.037 5.25391C168.477 5.25391 167.986 5.3776 167.562 5.625C167.146 5.86589 166.794 6.18164 166.508 6.57227C166.228 6.95638 166.013 7.36979 165.863 7.8125C165.714 8.2487 165.632 8.66536 165.619 9.0625ZM179.613 14.1895C180.108 14.1895 180.57 14.0983 181 13.916C181.436 13.7272 181.794 13.4505 182.074 13.0859C182.361 12.7148 182.523 12.2624 182.562 11.7285H183.676C183.643 12.3991 183.438 12.998 183.061 13.5254C182.689 14.0462 182.201 14.4564 181.596 14.7559C180.997 15.0488 180.336 15.1953 179.613 15.1953C178.878 15.1953 178.227 15.0618 177.66 14.7949C177.1 14.528 176.632 14.1569 176.254 13.6816C175.876 13.1999 175.59 12.64 175.395 12.002C175.206 11.3574 175.111 10.6641 175.111 9.92188V9.51172C175.111 8.76953 175.206 8.07943 175.395 7.44141C175.59 6.79688 175.876 6.23698 176.254 5.76172C176.632 5.27995 177.1 4.9056 177.66 4.63867C178.22 4.37174 178.868 4.23828 179.604 4.23828C180.359 4.23828 181.036 4.39128 181.635 4.69727C182.24 5.00326 182.722 5.4362 183.08 5.99609C183.445 6.55599 183.643 7.22005 183.676 7.98828H182.562C182.53 7.42188 182.38 6.93359 182.113 6.52344C181.846 6.11328 181.495 5.79753 181.059 5.57617C180.622 5.35482 180.137 5.24414 179.604 5.24414C179.005 5.24414 178.493 5.36133 178.07 5.5957C177.647 5.82357 177.302 6.13932 177.035 6.54297C176.775 6.9401 176.583 7.39583 176.459 7.91016C176.335 8.41797 176.273 8.95182 176.273 9.51172V9.92188C176.273 10.4883 176.332 11.0286 176.449 11.543C176.573 12.0508 176.765 12.5033 177.025 12.9004C177.292 13.2975 177.637 13.6133 178.061 13.8477C178.49 14.0755 179.008 14.1895 179.613 14.1895ZM189.164 13.9453L192.455 4.43359H193.715L189.242 16.6992C189.151 16.9401 189.034 17.207 188.891 17.5C188.754 17.793 188.572 18.0729 188.344 18.3398C188.122 18.6133 187.842 18.8346 187.504 19.0039C187.172 19.1797 186.765 19.2676 186.283 19.2676C186.16 19.2676 186 19.2513 185.805 19.2188C185.616 19.1927 185.479 19.1667 185.395 19.1406L185.385 18.1543C185.456 18.1738 185.561 18.1901 185.697 18.2031C185.834 18.2161 185.928 18.2227 185.98 18.2227C186.404 18.2227 186.758 18.151 187.045 18.0078C187.338 17.8646 187.582 17.6497 187.777 17.3633C187.973 17.0833 188.145 16.7318 188.295 16.3086L189.164 13.9453ZM186.088 4.43359L189.457 13.5059L189.77 14.7266L188.92 15.2051L184.818 4.43359H186.088ZM203.354 12.5293L205.902 4.43359H206.723L206.234 6.61133L203.568 15H202.748L203.354 12.5293ZM200.707 4.43359L202.943 12.5781L203.422 15H202.572L199.506 4.43359H200.707ZM209.896 12.5488L212.074 4.43359H213.275L210.209 15H209.369L209.896 12.5488ZM206.889 4.43359L209.398 12.4609L210.033 15H209.213L206.488 6.60156L206.029 4.43359H206.889ZM216.82 4.43359V15H215.658V4.43359H216.82ZM215.453 1.37695C215.453 1.1556 215.521 0.970052 215.658 0.820312C215.801 0.664062 215.997 0.585938 216.244 0.585938C216.492 0.585938 216.687 0.664062 216.83 0.820312C216.98 0.970052 217.055 1.1556 217.055 1.37695C217.055 1.5918 216.98 1.77734 216.83 1.93359C216.687 2.08333 216.492 2.1582 216.244 2.1582C215.997 2.1582 215.801 2.08333 215.658 1.93359C215.521 1.77734 215.453 1.5918 215.453 1.37695ZM224.008 4.43359V5.39062H218.715V4.43359H224.008ZM220.658 1.71875H221.82V12.4316C221.82 12.9199 221.885 13.2878 222.016 13.5352C222.146 13.7826 222.315 13.9486 222.523 14.0332C222.732 14.1178 222.956 14.1602 223.197 14.1602C223.373 14.1602 223.542 14.1504 223.705 14.1309C223.868 14.1048 224.014 14.0788 224.145 14.0527L224.193 15.0391C224.05 15.0846 223.865 15.1204 223.637 15.1465C223.409 15.179 223.181 15.1953 222.953 15.1953C222.504 15.1953 222.107 15.1139 221.762 14.9512C221.417 14.7819 221.146 14.4954 220.951 14.0918C220.756 13.6816 220.658 13.125 220.658 12.4219V1.71875ZM227.621 0V15H226.459V0H227.621ZM227.357 9.0625L226.84 8.76953C226.879 8.14453 227.006 7.55859 227.221 7.01172C227.436 6.46484 227.725 5.98307 228.09 5.56641C228.461 5.14974 228.894 4.82422 229.389 4.58984C229.89 4.35547 230.443 4.23828 231.049 4.23828C231.576 4.23828 232.048 4.3099 232.465 4.45312C232.882 4.59635 233.236 4.82422 233.529 5.13672C233.822 5.44922 234.044 5.84961 234.193 6.33789C234.35 6.82617 234.428 7.42188 234.428 8.125V15H233.256V8.11523C233.256 7.38607 233.155 6.81641 232.953 6.40625C232.751 5.98958 232.465 5.69336 232.094 5.51758C231.723 5.3418 231.283 5.25391 230.775 5.25391C230.215 5.25391 229.724 5.3776 229.301 5.625C228.884 5.86589 228.533 6.18164 228.246 6.57227C227.966 6.95638 227.751 7.36979 227.602 7.8125C227.452 8.2487 227.37 8.66536 227.357 9.0625ZM248.744 13.1055V7.65625C248.744 7.15495 248.64 6.72201 248.432 6.35742C248.223 5.99284 247.917 5.71289 247.514 5.51758C247.11 5.32227 246.612 5.22461 246.02 5.22461C245.473 5.22461 244.984 5.32227 244.555 5.51758C244.132 5.70638 243.796 5.96354 243.549 6.28906C243.308 6.60807 243.188 6.96289 243.188 7.35352L242.016 7.34375C242.016 6.94661 242.113 6.5625 242.309 6.19141C242.504 5.82031 242.781 5.48828 243.139 5.19531C243.497 4.90234 243.923 4.67122 244.418 4.50195C244.919 4.32617 245.469 4.23828 246.068 4.23828C246.824 4.23828 247.488 4.36523 248.061 4.61914C248.64 4.87305 249.092 5.25391 249.418 5.76172C249.743 6.26953 249.906 6.90755 249.906 7.67578V12.7832C249.906 13.1478 249.932 13.5254 249.984 13.916C250.043 14.3066 250.124 14.6289 250.229 14.8828V15H248.988C248.91 14.7656 248.848 14.4727 248.803 14.1211C248.764 13.763 248.744 13.4245 248.744 13.1055ZM249.018 8.84766L249.037 9.74609H246.742C246.143 9.74609 245.606 9.80143 245.131 9.91211C244.662 10.0163 244.265 10.1725 243.939 10.3809C243.614 10.5827 243.363 10.8268 243.188 11.1133C243.018 11.3997 242.934 11.7253 242.934 12.0898C242.934 12.4674 243.028 12.8125 243.217 13.125C243.412 13.4375 243.686 13.6882 244.037 13.877C244.395 14.0592 244.818 14.1504 245.307 14.1504C245.958 14.1504 246.531 14.0299 247.025 13.7891C247.527 13.5482 247.94 13.2324 248.266 12.8418C248.591 12.4512 248.809 12.0247 248.92 11.5625L249.428 12.2363C249.343 12.5618 249.187 12.8971 248.959 13.2422C248.738 13.5807 248.448 13.8997 248.09 14.1992C247.732 14.4922 247.309 14.7331 246.82 14.9219C246.339 15.1042 245.792 15.1953 245.18 15.1953C244.49 15.1953 243.887 15.0651 243.373 14.8047C242.865 14.5443 242.468 14.1895 242.182 13.7402C241.902 13.2845 241.762 12.7702 241.762 12.1973C241.762 11.6764 241.872 11.2109 242.094 10.8008C242.315 10.3841 242.634 10.0326 243.051 9.74609C243.474 9.45312 243.982 9.23177 244.574 9.08203C245.173 8.92578 245.844 8.84766 246.586 8.84766H249.018ZM259.086 0V15H257.924V0H259.086ZM258.822 9.0625L258.305 8.76953C258.344 8.14453 258.471 7.55859 258.686 7.01172C258.9 6.46484 259.19 5.98307 259.555 5.56641C259.926 5.14974 260.359 4.82422 260.854 4.58984C261.355 4.35547 261.908 4.23828 262.514 4.23828C263.041 4.23828 263.513 4.3099 263.93 4.45312C264.346 4.59635 264.701 4.82422 264.994 5.13672C265.287 5.44922 265.508 5.84961 265.658 6.33789C265.814 6.82617 265.893 7.42188 265.893 8.125V15H264.721V8.11523C264.721 7.38607 264.62 6.81641 264.418 6.40625C264.216 5.98958 263.93 5.69336 263.559 5.51758C263.188 5.3418 262.748 5.25391 262.24 5.25391C261.68 5.25391 261.189 5.3776 260.766 5.625C260.349 5.86589 259.997 6.18164 259.711 6.57227C259.431 6.95638 259.216 7.36979 259.066 7.8125C258.917 8.2487 258.835 8.66536 258.822 9.0625ZM275.668 12.5586V4.43359H276.84V15H275.717L275.668 12.5586ZM275.883 10.6055L276.488 10.5859C276.488 11.25 276.41 11.862 276.254 12.4219C276.098 12.9818 275.854 13.4701 275.521 13.8867C275.189 14.3034 274.76 14.6257 274.232 14.8535C273.705 15.0814 273.07 15.1953 272.328 15.1953C271.814 15.1953 271.342 15.1237 270.912 14.9805C270.489 14.8307 270.124 14.5964 269.818 14.2773C269.512 13.9583 269.275 13.5449 269.105 13.0371C268.943 12.5293 268.861 11.9141 268.861 11.1914V4.43359H270.023V11.2109C270.023 11.7773 270.085 12.2493 270.209 12.627C270.339 13.0046 270.515 13.3073 270.736 13.5352C270.964 13.763 271.225 13.9258 271.518 14.0234C271.811 14.1211 272.126 14.1699 272.465 14.1699C273.324 14.1699 274.001 14.0039 274.496 13.6719C274.997 13.3398 275.352 12.9036 275.561 12.3633C275.775 11.8164 275.883 11.2305 275.883 10.6055ZM281 6.62109V15H279.828V4.43359H280.951L281 6.62109ZM280.785 9.0625L280.219 8.76953C280.258 8.14453 280.375 7.55859 280.57 7.01172C280.772 6.46484 281.052 5.98307 281.41 5.56641C281.768 5.14974 282.198 4.82422 282.699 4.58984C283.201 4.35547 283.77 4.23828 284.408 4.23828C284.923 4.23828 285.388 4.3099 285.805 4.45312C286.228 4.58984 286.586 4.80794 286.879 5.10742C287.178 5.40039 287.41 5.78451 287.572 6.25977C287.735 6.73503 287.816 7.30469 287.816 7.96875V15H286.654V8.00781C286.654 7.30469 286.544 6.75456 286.322 6.35742C286.107 5.96029 285.805 5.67708 285.414 5.50781C285.03 5.33854 284.584 5.25391 284.076 5.25391C283.477 5.25391 282.969 5.3776 282.553 5.625C282.143 5.86589 281.807 6.18164 281.547 6.57227C281.293 6.95638 281.104 7.36979 280.98 7.8125C280.857 8.2487 280.792 8.66536 280.785 9.0625ZM287.807 8.14453L287.025 8.16406C287.058 7.64974 287.175 7.1582 287.377 6.68945C287.585 6.2207 287.868 5.80404 288.227 5.43945C288.585 5.06836 289.011 4.77539 289.506 4.56055C290.007 4.3457 290.57 4.23828 291.195 4.23828C291.742 4.23828 292.23 4.31315 292.66 4.46289C293.09 4.60612 293.451 4.83724 293.744 5.15625C294.044 5.46875 294.271 5.86914 294.428 6.35742C294.584 6.8457 294.662 7.43164 294.662 8.11523V15H293.49V8.10547C293.49 7.35677 293.38 6.77734 293.158 6.36719C292.943 5.95052 292.644 5.66081 292.26 5.49805C291.876 5.33529 291.426 5.25391 290.912 5.25391C290.404 5.26042 289.958 5.35482 289.574 5.53711C289.19 5.71289 288.868 5.94727 288.607 6.24023C288.354 6.52669 288.158 6.83594 288.021 7.16797C287.891 7.5 287.82 7.82552 287.807 8.14453ZM304.057 13.1055V7.65625C304.057 7.15495 303.952 6.72201 303.744 6.35742C303.536 5.99284 303.23 5.71289 302.826 5.51758C302.423 5.32227 301.924 5.22461 301.332 5.22461C300.785 5.22461 300.297 5.32227 299.867 5.51758C299.444 5.70638 299.109 5.96354 298.861 6.28906C298.62 6.60807 298.5 6.96289 298.5 7.35352L297.328 7.34375C297.328 6.94661 297.426 6.5625 297.621 6.19141C297.816 5.82031 298.093 5.48828 298.451 5.19531C298.809 4.90234 299.236 4.67122 299.73 4.50195C300.232 4.32617 300.782 4.23828 301.381 4.23828C302.136 4.23828 302.8 4.36523 303.373 4.61914C303.952 4.87305 304.405 5.25391 304.73 5.76172C305.056 6.26953 305.219 6.90755 305.219 7.67578V12.7832C305.219 13.1478 305.245 13.5254 305.297 13.916C305.355 14.3066 305.437 14.6289 305.541 14.8828V15H304.301C304.223 14.7656 304.161 14.4727 304.115 14.1211C304.076 13.763 304.057 13.4245 304.057 13.1055ZM304.33 8.84766L304.35 9.74609H302.055C301.456 9.74609 300.919 9.80143 300.443 9.91211C299.975 10.0163 299.577 10.1725 299.252 10.3809C298.926 10.5827 298.676 10.8268 298.5 11.1133C298.331 11.3997 298.246 11.7253 298.246 12.0898C298.246 12.4674 298.34 12.8125 298.529 13.125C298.725 13.4375 298.998 13.6882 299.35 13.877C299.708 14.0592 300.131 14.1504 300.619 14.1504C301.27 14.1504 301.843 14.0299 302.338 13.7891C302.839 13.5482 303.253 13.2324 303.578 12.8418C303.904 12.4512 304.122 12.0247 304.232 11.5625L304.74 12.2363C304.656 12.5618 304.499 12.8971 304.271 13.2422C304.05 13.5807 303.76 13.8997 303.402 14.1992C303.044 14.4922 302.621 14.7331 302.133 14.9219C301.651 15.1042 301.104 15.1953 300.492 15.1953C299.802 15.1953 299.2 15.0651 298.686 14.8047C298.178 14.5443 297.781 14.1895 297.494 13.7402C297.214 13.2845 297.074 12.7702 297.074 12.1973C297.074 11.6764 297.185 11.2109 297.406 10.8008C297.628 10.3841 297.947 10.0326 298.363 9.74609C298.786 9.45312 299.294 9.23177 299.887 9.08203C300.486 8.92578 301.156 8.84766 301.898 8.84766H304.33ZM309.516 6.68945V15H308.354V4.43359H309.467L309.516 6.68945ZM309.252 9.0625L308.734 8.76953C308.773 8.14453 308.9 7.55859 309.115 7.01172C309.33 6.46484 309.62 5.98307 309.984 5.56641C310.355 5.14974 310.788 4.82422 311.283 4.58984C311.785 4.35547 312.338 4.23828 312.943 4.23828C313.471 4.23828 313.943 4.3099 314.359 4.45312C314.776 4.59635 315.131 4.82422 315.424 5.13672C315.717 5.44922 315.938 5.84961 316.088 6.33789C316.244 6.82617 316.322 7.42188 316.322 8.125V15H315.15V8.11523C315.15 7.38607 315.049 6.81641 314.848 6.40625C314.646 5.98958 314.359 5.69336 313.988 5.51758C313.617 5.3418 313.178 5.25391 312.67 5.25391C312.11 5.25391 311.618 5.3776 311.195 5.625C310.779 5.86589 310.427 6.18164 310.141 6.57227C309.861 6.95638 309.646 7.36979 309.496 7.8125C309.346 8.2487 309.265 8.66536 309.252 9.0625ZM322.982 8.22266V9.22852H318.305V8.22266H322.982ZM329.086 4.43359V5.39062H323.793V4.43359H329.086ZM325.736 1.71875H326.898V12.4316C326.898 12.9199 326.964 13.2878 327.094 13.5352C327.224 13.7826 327.393 13.9486 327.602 14.0332C327.81 14.1178 328.035 14.1602 328.275 14.1602C328.451 14.1602 328.62 14.1504 328.783 14.1309C328.946 14.1048 329.092 14.0788 329.223 14.0527L329.271 15.0391C329.128 15.0846 328.943 15.1204 328.715 15.1465C328.487 15.179 328.259 15.1953 328.031 15.1953C327.582 15.1953 327.185 15.1139 326.84 14.9512C326.495 14.7819 326.225 14.4954 326.029 14.0918C325.834 13.6816 325.736 13.125 325.736 12.4219V1.71875ZM330.697 9.88281V9.56055C330.697 8.79232 330.808 8.08268 331.029 7.43164C331.251 6.7806 331.566 6.21745 331.977 5.74219C332.393 5.26693 332.891 4.89909 333.471 4.63867C334.05 4.37174 334.695 4.23828 335.404 4.23828C336.12 4.23828 336.768 4.37174 337.348 4.63867C337.927 4.89909 338.425 5.26693 338.842 5.74219C339.258 6.21745 339.577 6.7806 339.799 7.43164C340.02 8.08268 340.131 8.79232 340.131 9.56055V9.88281C340.131 10.651 340.02 11.3607 339.799 12.0117C339.577 12.6562 339.258 13.2161 338.842 13.6914C338.432 14.1667 337.937 14.5378 337.357 14.8047C336.778 15.0651 336.133 15.1953 335.424 15.1953C334.708 15.1953 334.06 15.0651 333.48 14.8047C332.901 14.5378 332.403 14.1667 331.986 13.6914C331.57 13.2161 331.251 12.6562 331.029 12.0117C330.808 11.3607 330.697 10.651 330.697 9.88281ZM331.859 9.56055V9.88281C331.859 10.4622 331.938 11.0124 332.094 11.5332C332.25 12.0475 332.478 12.5065 332.777 12.9102C333.077 13.3073 333.448 13.6198 333.891 13.8477C334.333 14.0755 334.844 14.1895 335.424 14.1895C335.997 14.1895 336.501 14.0755 336.938 13.8477C337.38 13.6198 337.751 13.3073 338.051 12.9102C338.35 12.5065 338.575 12.0475 338.725 11.5332C338.881 11.0124 338.959 10.4622 338.959 9.88281V9.56055C338.959 8.98763 338.881 8.44401 338.725 7.92969C338.575 7.41536 338.347 6.95638 338.041 6.55273C337.742 6.14909 337.37 5.83008 336.928 5.5957C336.485 5.36133 335.977 5.24414 335.404 5.24414C334.831 5.24414 334.324 5.36133 333.881 5.5957C333.445 5.83008 333.074 6.14909 332.768 6.55273C332.468 6.95638 332.24 7.41536 332.084 7.92969C331.934 8.44401 331.859 8.98763 331.859 9.56055ZM349.32 12.5586V4.43359H350.492V15H349.369L349.32 12.5586ZM349.535 10.6055L350.141 10.5859C350.141 11.25 350.062 11.862 349.906 12.4219C349.75 12.9818 349.506 13.4701 349.174 13.8867C348.842 14.3034 348.412 14.6257 347.885 14.8535C347.357 15.0814 346.723 15.1953 345.98 15.1953C345.466 15.1953 344.994 15.1237 344.564 14.9805C344.141 14.8307 343.777 14.5964 343.471 14.2773C343.165 13.9583 342.927 13.5449 342.758 13.0371C342.595 12.5293 342.514 11.9141 342.514 11.1914V4.43359H343.676V11.2109C343.676 11.7773 343.738 12.2493 343.861 12.627C343.992 13.0046 344.167 13.3073 344.389 13.5352C344.617 13.763 344.877 13.9258 345.17 14.0234C345.463 14.1211 345.779 14.1699 346.117 14.1699C346.977 14.1699 347.654 14.0039 348.148 13.6719C348.65 13.3398 349.005 12.9036 349.213 12.3633C349.428 11.8164 349.535 11.2305 349.535 10.6055ZM357.445 14.1895C357.94 14.1895 358.402 14.0983 358.832 13.916C359.268 13.7272 359.626 13.4505 359.906 13.0859C360.193 12.7148 360.355 12.2624 360.395 11.7285H361.508C361.475 12.3991 361.27 12.998 360.893 13.5254C360.521 14.0462 360.033 14.4564 359.428 14.7559C358.829 15.0488 358.168 15.1953 357.445 15.1953C356.71 15.1953 356.059 15.0618 355.492 14.7949C354.932 14.528 354.464 14.1569 354.086 13.6816C353.708 13.1999 353.422 12.64 353.227 12.002C353.038 11.3574 352.943 10.6641 352.943 9.92188V9.51172C352.943 8.76953 353.038 8.07943 353.227 7.44141C353.422 6.79688 353.708 6.23698 354.086 5.76172C354.464 5.27995 354.932 4.9056 355.492 4.63867C356.052 4.37174 356.7 4.23828 357.436 4.23828C358.191 4.23828 358.868 4.39128 359.467 4.69727C360.072 5.00326 360.554 5.4362 360.912 5.99609C361.277 6.55599 361.475 7.22005 361.508 7.98828H360.395C360.362 7.42188 360.212 6.93359 359.945 6.52344C359.678 6.11328 359.327 5.79753 358.891 5.57617C358.454 5.35482 357.969 5.24414 357.436 5.24414C356.837 5.24414 356.326 5.36133 355.902 5.5957C355.479 5.82357 355.134 6.13932 354.867 6.54297C354.607 6.9401 354.415 7.39583 354.291 7.91016C354.167 8.41797 354.105 8.95182 354.105 9.51172V9.92188C354.105 10.4883 354.164 11.0286 354.281 11.543C354.405 12.0508 354.597 12.5033 354.857 12.9004C355.124 13.2975 355.469 13.6133 355.893 13.8477C356.322 14.0755 356.84 14.1895 357.445 14.1895ZM365.023 0V15H363.861V0H365.023ZM364.76 9.0625L364.242 8.76953C364.281 8.14453 364.408 7.55859 364.623 7.01172C364.838 6.46484 365.128 5.98307 365.492 5.56641C365.863 5.14974 366.296 4.82422 366.791 4.58984C367.292 4.35547 367.846 4.23828 368.451 4.23828C368.979 4.23828 369.451 4.3099 369.867 4.45312C370.284 4.59635 370.639 4.82422 370.932 5.13672C371.225 5.44922 371.446 5.84961 371.596 6.33789C371.752 6.82617 371.83 7.42188 371.83 8.125V15H370.658V8.11523C370.658 7.38607 370.557 6.81641 370.355 6.40625C370.154 5.98958 369.867 5.69336 369.496 5.51758C369.125 5.3418 368.686 5.25391 368.178 5.25391C367.618 5.25391 367.126 5.3776 366.703 5.625C366.286 5.86589 365.935 6.18164 365.648 6.57227C365.368 6.95638 365.154 7.36979 365.004 7.8125C364.854 8.2487 364.773 8.66536 364.76 9.0625ZM27.6602 57.5039C27.6602 57.1133 27.5951 56.765 27.4648 56.459C27.3346 56.153 27.1198 55.8796 26.8203 55.6387C26.5273 55.3913 26.1302 55.1634 25.6289 54.9551C25.1341 54.7402 24.5156 54.5286 23.7734 54.3203C23.0638 54.1185 22.4225 53.8971 21.8496 53.6562C21.2767 53.4154 20.7852 53.1387 20.375 52.8262C19.9714 52.5137 19.6621 52.1491 19.4473 51.7324C19.2324 51.3092 19.125 50.8177 19.125 50.2578C19.125 49.7109 19.2422 49.2129 19.4766 48.7637C19.7109 48.3145 20.0397 47.9271 20.4629 47.6016C20.8926 47.276 21.3971 47.0254 21.9766 46.8496C22.5625 46.6738 23.2038 46.5859 23.9004 46.5859C24.8965 46.5859 25.7559 46.7747 26.4785 47.1523C27.2077 47.5299 27.7708 48.041 28.168 48.6855C28.5716 49.3236 28.7734 50.0397 28.7734 50.834H27.5723C27.5723 50.2155 27.4258 49.6654 27.1328 49.1836C26.8464 48.6953 26.4297 48.3145 25.8828 48.041C25.3424 47.7611 24.6816 47.6211 23.9004 47.6211C23.1191 47.6211 22.4616 47.7415 21.9277 47.9824C21.4004 48.2168 21 48.5326 20.7266 48.9297C20.4596 49.3203 20.3262 49.7565 20.3262 50.2383C20.3262 50.5768 20.3913 50.8893 20.5215 51.1758C20.6517 51.4557 20.8633 51.7194 21.1562 51.9668C21.4557 52.2077 21.8496 52.4355 22.3379 52.6504C22.8262 52.8587 23.4284 53.0573 24.1445 53.2461C24.8997 53.4544 25.5703 53.6855 26.1562 53.9395C26.7422 54.1934 27.237 54.4863 27.6406 54.8184C28.0443 55.1439 28.3503 55.5247 28.5586 55.9609C28.7669 56.3971 28.8711 56.9049 28.8711 57.4844C28.8711 58.0638 28.7474 58.5846 28.5 59.0469C28.2591 59.5026 27.9173 59.89 27.4746 60.209C27.0384 60.528 26.5208 60.7721 25.9219 60.9414C25.3294 61.1107 24.6816 61.1953 23.9785 61.1953C23.347 61.1953 22.7188 61.1139 22.0938 60.9512C21.4688 60.7884 20.8958 60.5378 20.375 60.1992C19.8607 59.8542 19.4473 59.4115 19.1348 58.8711C18.8288 58.3307 18.6758 57.6862 18.6758 56.9375H19.8672C19.8672 57.5365 19.9876 58.041 20.2285 58.4512C20.4694 58.8613 20.7884 59.1934 21.1855 59.4473C21.5892 59.7012 22.0319 59.8867 22.5137 60.0039C23.002 60.1146 23.4902 60.1699 23.9785 60.1699C24.7272 60.1699 25.375 60.0592 25.9219 59.8379C26.4753 59.6165 26.9017 59.3073 27.2012 58.9102C27.5072 58.5065 27.6602 58.0378 27.6602 57.5039ZM32.3477 52.4648V65.0625H31.1758V50.4336H32.2695L32.3477 52.4648ZM39.6914 55.6191V55.8242C39.6914 56.612 39.6003 57.3346 39.418 57.9922C39.2357 58.6497 38.972 59.2194 38.627 59.7012C38.2884 60.1764 37.8685 60.5443 37.3672 60.8047C36.8659 61.0651 36.2962 61.1953 35.6582 61.1953C35.0267 61.1953 34.4635 61.0977 33.9688 60.9023C33.474 60.707 33.0475 60.4303 32.6895 60.0723C32.3379 59.7077 32.0547 59.2845 31.8398 58.8027C31.6315 58.3145 31.485 57.7806 31.4004 57.2012V54.4961C31.498 53.8581 31.6576 53.2786 31.8789 52.7578C32.1003 52.237 32.3835 51.7878 32.7285 51.4102C33.0801 51.0326 33.4967 50.7428 33.9785 50.541C34.4603 50.3392 35.0104 50.2383 35.6289 50.2383C36.2734 50.2383 36.8464 50.3652 37.3477 50.6191C37.8555 50.8665 38.2819 51.2279 38.627 51.7031C38.9785 52.1719 39.2422 52.7383 39.418 53.4023C39.6003 54.0599 39.6914 54.7988 39.6914 55.6191ZM38.5195 55.8242V55.6191C38.5195 55.0007 38.4544 54.4277 38.3242 53.9004C38.2005 53.373 38.0085 52.9141 37.748 52.5234C37.4941 52.1263 37.1686 51.8171 36.7715 51.5957C36.3809 51.3743 35.9154 51.2637 35.375 51.2637C34.8151 51.2637 34.3366 51.3581 33.9395 51.5469C33.5488 51.7292 33.2233 51.9733 32.9629 52.2793C32.7025 52.5788 32.4974 52.9076 32.3477 53.2656C32.1979 53.6237 32.0872 53.9753 32.0156 54.3203V57.4355C32.1393 57.9303 32.3379 58.3893 32.6113 58.8125C32.8848 59.2292 33.2493 59.5645 33.7051 59.8184C34.1673 60.0658 34.7305 60.1895 35.3945 60.1895C35.9284 60.1895 36.3906 60.0788 36.7812 59.8574C37.1719 59.6361 37.4941 59.3268 37.748 58.9297C38.0085 58.5326 38.2005 58.0703 38.3242 57.543C38.4544 57.0156 38.5195 56.4427 38.5195 55.8242ZM46.3711 61.1953C45.681 61.1953 45.0462 61.0684 44.4668 60.8145C43.8939 60.5605 43.3926 60.2025 42.9629 59.7402C42.5397 59.278 42.2109 58.7311 41.9766 58.0996C41.7487 57.4616 41.6348 56.765 41.6348 56.0098V55.5898C41.6348 54.776 41.7552 54.0404 41.9961 53.3828C42.237 52.7253 42.569 52.1621 42.9922 51.6934C43.4154 51.2246 43.8971 50.8665 44.4375 50.6191C44.9844 50.3652 45.5573 50.2383 46.1562 50.2383C46.8268 50.2383 47.4225 50.3587 47.9434 50.5996C48.4642 50.834 48.9004 51.1693 49.252 51.6055C49.61 52.0352 49.8802 52.5462 50.0625 53.1387C50.2448 53.7246 50.3359 54.3724 50.3359 55.082V55.7949H42.3379V54.7988H49.1738V54.6621C49.1608 54.0697 49.0404 53.5163 48.8125 53.002C48.5911 52.4811 48.2591 52.0579 47.8164 51.7324C47.3737 51.4069 46.8203 51.2441 46.1562 51.2441C45.6615 51.2441 45.2057 51.3483 44.7891 51.5566C44.3789 51.765 44.0241 52.0645 43.7246 52.4551C43.4316 52.8392 43.2038 53.2982 43.041 53.832C42.8848 54.3594 42.8066 54.9453 42.8066 55.5898V56.0098C42.8066 56.5957 42.8913 57.1426 43.0605 57.6504C43.2363 58.1517 43.4837 58.5944 43.8027 58.9785C44.1283 59.3626 44.5124 59.6621 44.9551 59.877C45.3978 60.0918 45.8861 60.1992 46.4199 60.1992C47.0449 60.1992 47.5983 60.0853 48.0801 59.8574C48.5618 59.623 48.9948 59.2552 49.3789 58.7539L50.1113 59.3203C49.8835 59.6589 49.597 59.9714 49.252 60.2578C48.9134 60.5443 48.5065 60.7721 48.0312 60.9414C47.556 61.1107 47.0026 61.1953 46.3711 61.1953ZM56.5371 60.1895C57.0319 60.1895 57.4941 60.0983 57.9238 59.916C58.36 59.7272 58.7181 59.4505 58.998 59.0859C59.2845 58.7148 59.4473 58.2624 59.4863 57.7285H60.5996C60.5671 58.3991 60.362 58.998 59.9844 59.5254C59.6133 60.0462 59.125 60.4564 58.5195 60.7559C57.9206 61.0488 57.2598 61.1953 56.5371 61.1953C55.8014 61.1953 55.1504 61.0618 54.584 60.7949C54.0241 60.528 53.5553 60.1569 53.1777 59.6816C52.8001 59.1999 52.5137 58.64 52.3184 58.002C52.1296 57.3574 52.0352 56.6641 52.0352 55.9219V55.5117C52.0352 54.7695 52.1296 54.0794 52.3184 53.4414C52.5137 52.7969 52.8001 52.237 53.1777 51.7617C53.5553 51.2799 54.0241 50.9056 54.584 50.6387C55.1439 50.3717 55.7917 50.2383 56.5273 50.2383C57.2826 50.2383 57.9596 50.3913 58.5586 50.6973C59.1641 51.0033 59.6458 51.4362 60.0039 51.9961C60.3685 52.556 60.5671 53.2201 60.5996 53.9883H59.4863C59.4538 53.4219 59.304 52.9336 59.0371 52.5234C58.7702 52.1133 58.4186 51.7975 57.9824 51.5762C57.5462 51.3548 57.0612 51.2441 56.5273 51.2441C55.9284 51.2441 55.4173 51.3613 54.9941 51.5957C54.571 51.8236 54.2259 52.1393 53.959 52.543C53.6986 52.9401 53.5065 53.3958 53.3828 53.9102C53.2591 54.418 53.1973 54.9518 53.1973 55.5117V55.9219C53.1973 56.4883 53.2559 57.0286 53.373 57.543C53.4967 58.0508 53.6888 58.5033 53.9492 58.9004C54.2161 59.2975 54.5612 59.6133 54.9844 59.8477C55.4141 60.0755 55.9316 60.1895 56.5371 60.1895ZM64.252 50.4336V61H63.0898V50.4336H64.252ZM62.8848 47.377C62.8848 47.1556 62.9531 46.9701 63.0898 46.8203C63.2331 46.6641 63.4284 46.5859 63.6758 46.5859C63.9232 46.5859 64.1185 46.6641 64.2617 46.8203C64.4115 46.9701 64.4863 47.1556 64.4863 47.377C64.4863 47.5918 64.4115 47.7773 64.2617 47.9336C64.1185 48.0833 63.9232 48.1582 63.6758 48.1582C63.4284 48.1582 63.2331 48.0833 63.0898 47.9336C62.9531 47.7773 62.8848 47.5918 62.8848 47.377ZM73.8711 59.1055V53.6562C73.8711 53.1549 73.7669 52.722 73.5586 52.3574C73.3503 51.9928 73.0443 51.7129 72.6406 51.5176C72.237 51.3223 71.7389 51.2246 71.1465 51.2246C70.5996 51.2246 70.1113 51.3223 69.6816 51.5176C69.2585 51.7064 68.9232 51.9635 68.6758 52.2891C68.4349 52.6081 68.3145 52.9629 68.3145 53.3535L67.1426 53.3438C67.1426 52.9466 67.2402 52.5625 67.4355 52.1914C67.6309 51.8203 67.9076 51.4883 68.2656 51.1953C68.6237 50.9023 69.0501 50.6712 69.5449 50.502C70.0462 50.3262 70.5964 50.2383 71.1953 50.2383C71.9505 50.2383 72.6146 50.3652 73.1875 50.6191C73.7669 50.873 74.2194 51.2539 74.5449 51.7617C74.8704 52.2695 75.0332 52.9076 75.0332 53.6758V58.7832C75.0332 59.1478 75.0592 59.5254 75.1113 59.916C75.1699 60.3066 75.2513 60.6289 75.3555 60.8828V61H74.1152C74.0371 60.7656 73.9753 60.4727 73.9297 60.1211C73.8906 59.763 73.8711 59.4245 73.8711 59.1055ZM74.1445 54.8477L74.1641 55.7461H71.8691C71.2702 55.7461 70.7331 55.8014 70.2578 55.9121C69.7891 56.0163 69.3919 56.1725 69.0664 56.3809C68.7409 56.5827 68.4902 56.8268 68.3145 57.1133C68.1452 57.3997 68.0605 57.7253 68.0605 58.0898C68.0605 58.4674 68.1549 58.8125 68.3438 59.125C68.5391 59.4375 68.8125 59.6882 69.1641 59.877C69.5221 60.0592 69.9453 60.1504 70.4336 60.1504C71.0846 60.1504 71.6576 60.0299 72.1523 59.7891C72.6536 59.5482 73.0671 59.2324 73.3926 58.8418C73.7181 58.4512 73.9362 58.0247 74.0469 57.5625L74.5547 58.2363C74.4701 58.5618 74.3138 58.8971 74.0859 59.2422C73.8646 59.5807 73.5749 59.8997 73.2168 60.1992C72.8587 60.4922 72.4355 60.7331 71.9473 60.9219C71.4655 61.1042 70.9186 61.1953 70.3066 61.1953C69.6165 61.1953 69.0143 61.0651 68.5 60.8047C67.9922 60.5443 67.5951 60.1895 67.3086 59.7402C67.0286 59.2845 66.8887 58.7702 66.8887 58.1973C66.8887 57.6764 66.9993 57.2109 67.2207 56.8008C67.4421 56.3841 67.7611 56.0326 68.1777 55.7461C68.6009 55.4531 69.1087 55.2318 69.7012 55.082C70.3001 54.9258 70.9707 54.8477 71.7129 54.8477H74.1445ZM79.4668 46V61H78.3047V46H79.4668ZM83.959 50.4336V61H82.7969V50.4336H83.959ZM82.5918 47.377C82.5918 47.1556 82.6602 46.9701 82.7969 46.8203C82.9401 46.6641 83.1354 46.5859 83.3828 46.5859C83.6302 46.5859 83.8255 46.6641 83.9688 46.8203C84.1185 46.9701 84.1934 47.1556 84.1934 47.377C84.1934 47.5918 84.1185 47.7773 83.9688 47.9336C83.8255 48.0833 83.6302 48.1582 83.3828 48.1582C83.1354 48.1582 82.9401 48.0833 82.7969 47.9336C82.6602 47.7773 82.5918 47.5918 82.5918 47.377ZM93.4805 58.3047C93.4805 58.0182 93.4089 57.735 93.2656 57.4551C93.1224 57.1751 92.8457 56.918 92.4355 56.6836C92.0319 56.4492 91.4362 56.2507 90.6484 56.0879C90.0625 55.9577 89.5384 55.8112 89.0762 55.6484C88.6204 55.4857 88.2363 55.2904 87.9238 55.0625C87.6113 54.8346 87.3737 54.5612 87.2109 54.2422C87.0482 53.9232 86.9668 53.5456 86.9668 53.1094C86.9668 52.7188 87.0514 52.3509 87.2207 52.0059C87.3965 51.6543 87.6439 51.3483 87.9629 51.0879C88.2884 50.821 88.679 50.6126 89.1348 50.4629C89.597 50.3132 90.1146 50.2383 90.6875 50.2383C91.5013 50.2383 92.1979 50.3783 92.7773 50.6582C93.3633 50.9316 93.8092 51.306 94.1152 51.7812C94.4277 52.2565 94.584 52.7936 94.584 53.3926H93.4219C93.4219 53.028 93.3145 52.6829 93.0996 52.3574C92.8913 52.0319 92.582 51.765 92.1719 51.5566C91.7682 51.3483 91.2734 51.2441 90.6875 51.2441C90.082 51.2441 89.5905 51.3353 89.2129 51.5176C88.8353 51.6999 88.5586 51.931 88.3828 52.2109C88.2135 52.4909 88.1289 52.7806 88.1289 53.0801C88.1289 53.3145 88.1647 53.5293 88.2363 53.7246C88.3145 53.9134 88.4512 54.0892 88.6465 54.252C88.8483 54.4147 89.1348 54.5677 89.5059 54.7109C89.877 54.8542 90.3587 54.9941 90.9512 55.1309C91.804 55.3197 92.5007 55.5508 93.041 55.8242C93.5879 56.0911 93.9915 56.4232 94.252 56.8203C94.5124 57.2109 94.6426 57.6862 94.6426 58.2461C94.6426 58.6823 94.5514 59.0827 94.3691 59.4473C94.1868 59.8053 93.9232 60.1146 93.5781 60.375C93.2396 60.6354 92.8294 60.8372 92.3477 60.9805C91.8724 61.1237 91.3385 61.1953 90.7461 61.1953C89.8542 61.1953 89.099 61.0488 88.4805 60.7559C87.8685 60.4564 87.403 60.0658 87.084 59.584C86.7715 59.0957 86.6152 58.5781 86.6152 58.0312H87.7773C87.8164 58.5781 87.9889 59.0111 88.2949 59.3301C88.6009 59.6426 88.9753 59.8639 89.418 59.9941C89.8672 60.1243 90.3099 60.1895 90.7461 60.1895C91.3451 60.1895 91.8464 60.1016 92.25 59.9258C92.6536 59.75 92.9596 59.5189 93.168 59.2324C93.3763 58.946 93.4805 58.6367 93.4805 58.3047ZM101.371 61.1953C100.681 61.1953 100.046 61.0684 99.4668 60.8145C98.8939 60.5605 98.3926 60.2025 97.9629 59.7402C97.5397 59.278 97.2109 58.7311 96.9766 58.0996C96.7487 57.4616 96.6348 56.765 96.6348 56.0098V55.5898C96.6348 54.776 96.7552 54.0404 96.9961 53.3828C97.237 52.7253 97.569 52.1621 97.9922 51.6934C98.4154 51.2246 98.8971 50.8665 99.4375 50.6191C99.9844 50.3652 100.557 50.2383 101.156 50.2383C101.827 50.2383 102.423 50.3587 102.943 50.5996C103.464 50.834 103.9 51.1693 104.252 51.6055C104.61 52.0352 104.88 52.5462 105.062 53.1387C105.245 53.7246 105.336 54.3724 105.336 55.082V55.7949H97.3379V54.7988H104.174V54.6621C104.161 54.0697 104.04 53.5163 103.812 53.002C103.591 52.4811 103.259 52.0579 102.816 51.7324C102.374 51.4069 101.82 51.2441 101.156 51.2441C100.661 51.2441 100.206 51.3483 99.7891 51.5566C99.3789 51.765 99.0241 52.0645 98.7246 52.4551C98.4316 52.8392 98.2038 53.2982 98.041 53.832C97.8848 54.3594 97.8066 54.9453 97.8066 55.5898V56.0098C97.8066 56.5957 97.8913 57.1426 98.0605 57.6504C98.2363 58.1517 98.4837 58.5944 98.8027 58.9785C99.1283 59.3626 99.5124 59.6621 99.9551 59.877C100.398 60.0918 100.886 60.1992 101.42 60.1992C102.045 60.1992 102.598 60.0853 103.08 59.8574C103.562 59.623 103.995 59.2552 104.379 58.7539L105.111 59.3203C104.883 59.6589 104.597 59.9714 104.252 60.2578C103.913 60.5443 103.507 60.7721 103.031 60.9414C102.556 61.1107 102.003 61.1953 101.371 61.1953ZM113.969 58.3047C113.969 58.0182 113.897 57.735 113.754 57.4551C113.611 57.1751 113.334 56.918 112.924 56.6836C112.52 56.4492 111.924 56.2507 111.137 56.0879C110.551 55.9577 110.027 55.8112 109.564 55.6484C109.109 55.4857 108.725 55.2904 108.412 55.0625C108.1 54.8346 107.862 54.5612 107.699 54.2422C107.536 53.9232 107.455 53.5456 107.455 53.1094C107.455 52.7188 107.54 52.3509 107.709 52.0059C107.885 51.6543 108.132 51.3483 108.451 51.0879C108.777 50.821 109.167 50.6126 109.623 50.4629C110.085 50.3132 110.603 50.2383 111.176 50.2383C111.99 50.2383 112.686 50.3783 113.266 50.6582C113.852 50.9316 114.298 51.306 114.604 51.7812C114.916 52.2565 115.072 52.7936 115.072 53.3926H113.91C113.91 53.028 113.803 52.6829 113.588 52.3574C113.38 52.0319 113.07 51.765 112.66 51.5566C112.257 51.3483 111.762 51.2441 111.176 51.2441C110.57 51.2441 110.079 51.3353 109.701 51.5176C109.324 51.6999 109.047 51.931 108.871 52.2109C108.702 52.4909 108.617 52.7806 108.617 53.0801C108.617 53.3145 108.653 53.5293 108.725 53.7246C108.803 53.9134 108.939 54.0892 109.135 54.252C109.337 54.4147 109.623 54.5677 109.994 54.7109C110.365 54.8542 110.847 54.9941 111.439 55.1309C112.292 55.3197 112.989 55.5508 113.529 55.8242C114.076 56.0911 114.48 56.4232 114.74 56.8203C115.001 57.2109 115.131 57.6862 115.131 58.2461C115.131 58.6823 115.04 59.0827 114.857 59.4473C114.675 59.8053 114.411 60.1146 114.066 60.375C113.728 60.6354 113.318 60.8372 112.836 60.9805C112.361 61.1237 111.827 61.1953 111.234 61.1953C110.342 61.1953 109.587 61.0488 108.969 60.7559C108.357 60.4564 107.891 60.0658 107.572 59.584C107.26 59.0957 107.104 58.5781 107.104 58.0312H108.266C108.305 58.5781 108.477 59.0111 108.783 59.3301C109.089 59.6426 109.464 59.8639 109.906 59.9941C110.355 60.1243 110.798 60.1895 111.234 60.1895C111.833 60.1895 112.335 60.1016 112.738 59.9258C113.142 59.75 113.448 59.5189 113.656 59.2324C113.865 58.946 113.969 58.6367 113.969 58.3047ZM123.959 50.4336V61H122.797V50.4336H123.959ZM122.592 47.377C122.592 47.1556 122.66 46.9701 122.797 46.8203C122.94 46.6641 123.135 46.5859 123.383 46.5859C123.63 46.5859 123.826 46.6641 123.969 46.8203C124.118 46.9701 124.193 47.1556 124.193 47.377C124.193 47.5918 124.118 47.7773 123.969 47.9336C123.826 48.0833 123.63 48.1582 123.383 48.1582C123.135 48.1582 122.94 48.0833 122.797 47.9336C122.66 47.7773 122.592 47.5918 122.592 47.377ZM128.314 52.6895V61H127.152V50.4336H128.266L128.314 52.6895ZM128.051 55.0625L127.533 54.7695C127.572 54.1445 127.699 53.5586 127.914 53.0117C128.129 52.4648 128.419 51.9831 128.783 51.5664C129.154 51.1497 129.587 50.8242 130.082 50.5898C130.583 50.3555 131.137 50.2383 131.742 50.2383C132.27 50.2383 132.742 50.3099 133.158 50.4531C133.575 50.5964 133.93 50.8242 134.223 51.1367C134.516 51.4492 134.737 51.8496 134.887 52.3379C135.043 52.8262 135.121 53.4219 135.121 54.125V61H133.949V54.1152C133.949 53.3861 133.848 52.8164 133.646 52.4062C133.445 51.9896 133.158 51.6934 132.787 51.5176C132.416 51.3418 131.977 51.2539 131.469 51.2539C130.909 51.2539 130.417 51.3776 129.994 51.625C129.577 51.8659 129.226 52.1816 128.939 52.5723C128.66 52.9564 128.445 53.3698 128.295 53.8125C128.145 54.2487 128.064 54.6654 128.051 55.0625ZM151.889 46.7812H153.09V56.4102C153.09 57.4779 152.865 58.3665 152.416 59.0762C151.967 59.7858 151.361 60.3164 150.6 60.668C149.844 61.0195 149.008 61.1953 148.09 61.1953C147.146 61.1953 146.296 61.0195 145.541 60.668C144.786 60.3164 144.187 59.7858 143.744 59.0762C143.308 58.3665 143.09 57.4779 143.09 56.4102V46.7812H144.281V56.4102C144.281 57.237 144.444 57.9303 144.77 58.4902C145.095 59.0501 145.544 59.4701 146.117 59.75C146.69 60.0299 147.348 60.1699 148.09 60.1699C148.826 60.1699 149.48 60.0299 150.053 59.75C150.626 59.4701 151.075 59.0501 151.4 58.4902C151.726 57.9303 151.889 57.237 151.889 56.4102V46.7812ZM156.781 46.7812L160.785 52.7871L164.799 46.7812H166.225L161.518 53.7832L166.371 61H164.936L160.785 54.7988L156.635 61H155.209L160.062 53.7832L155.355 46.7812H156.781ZM174.203 46.7812L168.266 62.2207H167.211L173.148 46.7812H174.203ZM185.248 46.7812H186.449V56.4102C186.449 57.4779 186.225 58.3665 185.775 59.0762C185.326 59.7858 184.721 60.3164 183.959 60.668C183.204 61.0195 182.367 61.1953 181.449 61.1953C180.505 61.1953 179.656 61.0195 178.9 60.668C178.145 60.3164 177.546 59.7858 177.104 59.0762C176.667 58.3665 176.449 57.4779 176.449 56.4102V46.7812H177.641V56.4102C177.641 57.237 177.803 57.9303 178.129 58.4902C178.454 59.0501 178.904 59.4701 179.477 59.75C180.049 60.0299 180.707 60.1699 181.449 60.1699C182.185 60.1699 182.839 60.0299 183.412 59.75C183.985 59.4701 184.434 59.0501 184.76 58.4902C185.085 57.9303 185.248 57.237 185.248 56.4102V46.7812ZM191.293 46.7812V61H190.092V46.7812H191.293ZM206.195 59.1055V53.6562C206.195 53.1549 206.091 52.722 205.883 52.3574C205.674 51.9928 205.368 51.7129 204.965 51.5176C204.561 51.3223 204.063 51.2246 203.471 51.2246C202.924 51.2246 202.436 51.3223 202.006 51.5176C201.583 51.7064 201.247 51.9635 201 52.2891C200.759 52.6081 200.639 52.9629 200.639 53.3535L199.467 53.3438C199.467 52.9466 199.564 52.5625 199.76 52.1914C199.955 51.8203 200.232 51.4883 200.59 51.1953C200.948 50.9023 201.374 50.6712 201.869 50.502C202.37 50.3262 202.921 50.2383 203.52 50.2383C204.275 50.2383 204.939 50.3652 205.512 50.6191C206.091 50.873 206.544 51.2539 206.869 51.7617C207.195 52.2695 207.357 52.9076 207.357 53.6758V58.7832C207.357 59.1478 207.383 59.5254 207.436 59.916C207.494 60.3066 207.576 60.6289 207.68 60.8828V61H206.439C206.361 60.7656 206.299 60.4727 206.254 60.1211C206.215 59.763 206.195 59.4245 206.195 59.1055ZM206.469 54.8477L206.488 55.7461H204.193C203.594 55.7461 203.057 55.8014 202.582 55.9121C202.113 56.0163 201.716 56.1725 201.391 56.3809C201.065 56.5827 200.814 56.8268 200.639 57.1133C200.469 57.3997 200.385 57.7253 200.385 58.0898C200.385 58.4674 200.479 58.8125 200.668 59.125C200.863 59.4375 201.137 59.6882 201.488 59.877C201.846 60.0592 202.27 60.1504 202.758 60.1504C203.409 60.1504 203.982 60.0299 204.477 59.7891C204.978 59.5482 205.391 59.2324 205.717 58.8418C206.042 58.4512 206.26 58.0247 206.371 57.5625L206.879 58.2363C206.794 58.5618 206.638 58.8971 206.41 59.2422C206.189 59.5807 205.899 59.8997 205.541 60.1992C205.183 60.4922 204.76 60.7331 204.271 60.9219C203.79 61.1042 203.243 61.1953 202.631 61.1953C201.941 61.1953 201.339 61.0651 200.824 60.8047C200.316 60.5443 199.919 60.1895 199.633 59.7402C199.353 59.2845 199.213 58.7702 199.213 58.1973C199.213 57.6764 199.324 57.2109 199.545 56.8008C199.766 56.3841 200.085 56.0326 200.502 55.7461C200.925 55.4531 201.433 55.2318 202.025 55.082C202.624 54.9258 203.295 54.8477 204.037 54.8477H206.469ZM211.654 52.6895V61H210.492V50.4336H211.605L211.654 52.6895ZM211.391 55.0625L210.873 54.7695C210.912 54.1445 211.039 53.5586 211.254 53.0117C211.469 52.4648 211.758 51.9831 212.123 51.5664C212.494 51.1497 212.927 50.8242 213.422 50.5898C213.923 50.3555 214.477 50.2383 215.082 50.2383C215.609 50.2383 216.081 50.3099 216.498 50.4531C216.915 50.5964 217.27 50.8242 217.562 51.1367C217.855 51.4492 218.077 51.8496 218.227 52.3379C218.383 52.8262 218.461 53.4219 218.461 54.125V61H217.289V54.1152C217.289 53.3861 217.188 52.8164 216.986 52.4062C216.785 51.9896 216.498 51.6934 216.127 51.5176C215.756 51.3418 215.316 51.2539 214.809 51.2539C214.249 51.2539 213.757 51.3776 213.334 51.625C212.917 51.8659 212.566 52.1816 212.279 52.5723C211.999 52.9564 211.785 53.3698 211.635 53.8125C211.485 54.2487 211.404 54.6654 211.391 55.0625ZM228.354 58.9492V46H229.525V61H228.432L228.354 58.9492ZM221.02 55.8242V55.6191C221.02 54.7988 221.114 54.0599 221.303 53.4023C221.492 52.7383 221.762 52.1719 222.113 51.7031C222.471 51.2279 222.901 50.8665 223.402 50.6191C223.904 50.3652 224.47 50.2383 225.102 50.2383C225.72 50.2383 226.267 50.3392 226.742 50.541C227.217 50.7428 227.624 51.0326 227.963 51.4102C228.308 51.7878 228.585 52.237 228.793 52.7578C229.008 53.2786 229.164 53.8581 229.262 54.4961V57.1035C229.184 57.7025 229.04 58.2526 228.832 58.7539C228.624 59.2487 228.347 59.6816 228.002 60.0527C227.657 60.4173 227.24 60.7005 226.752 60.9023C226.27 61.0977 225.714 61.1953 225.082 61.1953C224.457 61.1953 223.894 61.0651 223.393 60.8047C222.891 60.5443 222.465 60.1764 222.113 59.7012C221.762 59.2194 221.492 58.6497 221.303 57.9922C221.114 57.3346 221.02 56.612 221.02 55.8242ZM222.191 55.6191V55.8242C222.191 56.4427 222.253 57.0156 222.377 57.543C222.501 58.0703 222.689 58.5293 222.943 58.9199C223.197 59.3105 223.52 59.6165 223.91 59.8379C224.301 60.0592 224.763 60.1699 225.297 60.1699C225.967 60.1699 226.531 60.043 226.986 59.7891C227.442 59.5286 227.807 59.1868 228.08 58.7637C228.354 58.334 228.552 57.8652 228.676 57.3574V54.3203C228.598 53.9753 228.484 53.6237 228.334 53.2656C228.184 52.9076 227.979 52.5788 227.719 52.2793C227.465 51.9733 227.139 51.7292 226.742 51.5469C226.352 51.3581 225.876 51.2637 225.316 51.2637C224.776 51.2637 224.311 51.3743 223.92 51.5957C223.529 51.8171 223.204 52.1263 222.943 52.5234C222.689 52.9141 222.501 53.373 222.377 53.9004C222.253 54.4277 222.191 55.0007 222.191 55.6191ZM242.201 59.2324L246.684 46.7812H247.992L242.699 61H241.732L242.201 59.2324ZM237.572 46.7812L242.035 59.2324L242.523 61H241.547L236.264 46.7812H237.572ZM251.127 50.4336V61H249.965V50.4336H251.127ZM249.76 47.377C249.76 47.1556 249.828 46.9701 249.965 46.8203C250.108 46.6641 250.303 46.5859 250.551 46.5859C250.798 46.5859 250.993 46.6641 251.137 46.8203C251.286 46.9701 251.361 47.1556 251.361 47.377C251.361 47.5918 251.286 47.7773 251.137 47.9336C250.993 48.0833 250.798 48.1582 250.551 48.1582C250.303 48.1582 250.108 48.0833 249.965 47.9336C249.828 47.7773 249.76 47.5918 249.76 47.377ZM260.648 58.3047C260.648 58.0182 260.577 57.735 260.434 57.4551C260.29 57.1751 260.014 56.918 259.604 56.6836C259.2 56.4492 258.604 56.2507 257.816 56.0879C257.23 55.9577 256.706 55.8112 256.244 55.6484C255.788 55.4857 255.404 55.2904 255.092 55.0625C254.779 54.8346 254.542 54.5612 254.379 54.2422C254.216 53.9232 254.135 53.5456 254.135 53.1094C254.135 52.7188 254.219 52.3509 254.389 52.0059C254.564 51.6543 254.812 51.3483 255.131 51.0879C255.456 50.821 255.847 50.6126 256.303 50.4629C256.765 50.3132 257.283 50.2383 257.855 50.2383C258.669 50.2383 259.366 50.3783 259.945 50.6582C260.531 50.9316 260.977 51.306 261.283 51.7812C261.596 52.2565 261.752 52.7936 261.752 53.3926H260.59C260.59 53.028 260.482 52.6829 260.268 52.3574C260.059 52.0319 259.75 51.765 259.34 51.5566C258.936 51.3483 258.441 51.2441 257.855 51.2441C257.25 51.2441 256.758 51.3353 256.381 51.5176C256.003 51.6999 255.727 51.931 255.551 52.2109C255.382 52.4909 255.297 52.7806 255.297 53.0801C255.297 53.3145 255.333 53.5293 255.404 53.7246C255.482 53.9134 255.619 54.0892 255.814 54.252C256.016 54.4147 256.303 54.5677 256.674 54.7109C257.045 54.8542 257.527 54.9941 258.119 55.1309C258.972 55.3197 259.669 55.5508 260.209 55.8242C260.756 56.0911 261.16 56.4232 261.42 56.8203C261.68 57.2109 261.811 57.6862 261.811 58.2461C261.811 58.6823 261.719 59.0827 261.537 59.4473C261.355 59.8053 261.091 60.1146 260.746 60.375C260.408 60.6354 259.997 60.8372 259.516 60.9805C259.04 61.1237 258.507 61.1953 257.914 61.1953C257.022 61.1953 256.267 61.0488 255.648 60.7559C255.036 60.4564 254.571 60.0658 254.252 59.584C253.939 59.0957 253.783 58.5781 253.783 58.0312H254.945C254.984 58.5781 255.157 59.0111 255.463 59.3301C255.769 59.6426 256.143 59.8639 256.586 59.9941C257.035 60.1243 257.478 60.1895 257.914 60.1895C258.513 60.1895 259.014 60.1016 259.418 59.9258C259.822 59.75 260.128 59.5189 260.336 59.2324C260.544 58.946 260.648 58.6367 260.648 58.3047ZM271.225 58.5586V50.4336H272.396V61H271.273L271.225 58.5586ZM271.439 56.6055L272.045 56.5859C272.045 57.25 271.967 57.862 271.811 58.4219C271.654 58.9818 271.41 59.4701 271.078 59.8867C270.746 60.3034 270.316 60.6257 269.789 60.8535C269.262 61.0814 268.627 61.1953 267.885 61.1953C267.37 61.1953 266.898 61.1237 266.469 60.9805C266.046 60.8307 265.681 60.5964 265.375 60.2773C265.069 59.9583 264.831 59.5449 264.662 59.0371C264.499 58.5293 264.418 57.9141 264.418 57.1914V50.4336H265.58V57.2109C265.58 57.7773 265.642 58.2493 265.766 58.627C265.896 59.0046 266.072 59.3073 266.293 59.5352C266.521 59.763 266.781 59.9258 267.074 60.0234C267.367 60.1211 267.683 60.1699 268.021 60.1699C268.881 60.1699 269.558 60.0039 270.053 59.6719C270.554 59.3398 270.909 58.9036 271.117 58.3633C271.332 57.8164 271.439 57.2305 271.439 56.6055ZM281.879 59.1055V53.6562C281.879 53.1549 281.775 52.722 281.566 52.3574C281.358 51.9928 281.052 51.7129 280.648 51.5176C280.245 51.3223 279.747 51.2246 279.154 51.2246C278.607 51.2246 278.119 51.3223 277.689 51.5176C277.266 51.7064 276.931 51.9635 276.684 52.2891C276.443 52.6081 276.322 52.9629 276.322 53.3535L275.15 53.3438C275.15 52.9466 275.248 52.5625 275.443 52.1914C275.639 51.8203 275.915 51.4883 276.273 51.1953C276.632 50.9023 277.058 50.6712 277.553 50.502C278.054 50.3262 278.604 50.2383 279.203 50.2383C279.958 50.2383 280.622 50.3652 281.195 50.6191C281.775 50.873 282.227 51.2539 282.553 51.7617C282.878 52.2695 283.041 52.9076 283.041 53.6758V58.7832C283.041 59.1478 283.067 59.5254 283.119 59.916C283.178 60.3066 283.259 60.6289 283.363 60.8828V61H282.123C282.045 60.7656 281.983 60.4727 281.938 60.1211C281.898 59.763 281.879 59.4245 281.879 59.1055ZM282.152 54.8477L282.172 55.7461H279.877C279.278 55.7461 278.741 55.8014 278.266 55.9121C277.797 56.0163 277.4 56.1725 277.074 56.3809C276.749 56.5827 276.498 56.8268 276.322 57.1133C276.153 57.3997 276.068 57.7253 276.068 58.0898C276.068 58.4674 276.163 58.8125 276.352 59.125C276.547 59.4375 276.82 59.6882 277.172 59.877C277.53 60.0592 277.953 60.1504 278.441 60.1504C279.092 60.1504 279.665 60.0299 280.16 59.7891C280.661 59.5482 281.075 59.2324 281.4 58.8418C281.726 58.4512 281.944 58.0247 282.055 57.5625L282.562 58.2363C282.478 58.5618 282.322 58.8971 282.094 59.2422C281.872 59.5807 281.583 59.8997 281.225 60.1992C280.867 60.4922 280.443 60.7331 279.955 60.9219C279.473 61.1042 278.926 61.1953 278.314 61.1953C277.624 61.1953 277.022 61.0651 276.508 60.8047C276 60.5443 275.603 60.1895 275.316 59.7402C275.036 59.2845 274.896 58.7702 274.896 58.1973C274.896 57.6764 275.007 57.2109 275.229 56.8008C275.45 56.3841 275.769 56.0326 276.186 55.7461C276.609 55.4531 277.117 55.2318 277.709 55.082C278.308 54.9258 278.979 54.8477 279.721 54.8477H282.152ZM287.475 46V61H286.312V46H287.475ZM299.711 61H296.488L296.508 59.9746H299.711C300.733 59.9746 301.612 59.7467 302.348 59.291C303.09 58.8288 303.663 58.1908 304.066 57.377C304.47 56.5632 304.672 55.6191 304.672 54.5449V53.2168C304.672 52.3965 304.555 51.6543 304.32 50.9902C304.092 50.3262 303.764 49.7598 303.334 49.291C302.904 48.8158 302.39 48.4512 301.791 48.1973C301.199 47.9434 300.535 47.8164 299.799 47.8164H296.43V46.7812H299.799C300.684 46.7812 301.495 46.9342 302.23 47.2402C302.973 47.5397 303.614 47.9759 304.154 48.5488C304.701 49.1152 305.121 49.7956 305.414 50.5898C305.714 51.3841 305.863 52.2695 305.863 53.2461V54.5449C305.863 55.5215 305.714 56.4069 305.414 57.2012C305.121 57.9954 304.701 58.6758 304.154 59.2422C303.607 59.8086 302.96 60.2448 302.211 60.5508C301.462 60.8503 300.629 61 299.711 61ZM297.025 46.7812V61H295.824V46.7812H297.025ZM312.738 61.1953C312.048 61.1953 311.413 61.0684 310.834 60.8145C310.261 60.5605 309.76 60.2025 309.33 59.7402C308.907 59.278 308.578 58.7311 308.344 58.0996C308.116 57.4616 308.002 56.765 308.002 56.0098V55.5898C308.002 54.776 308.122 54.0404 308.363 53.3828C308.604 52.7253 308.936 52.1621 309.359 51.6934C309.783 51.2246 310.264 50.8665 310.805 50.6191C311.352 50.3652 311.924 50.2383 312.523 50.2383C313.194 50.2383 313.79 50.3587 314.311 50.5996C314.831 50.834 315.268 51.1693 315.619 51.6055C315.977 52.0352 316.247 52.5462 316.43 53.1387C316.612 53.7246 316.703 54.3724 316.703 55.082V55.7949H308.705V54.7988H315.541V54.6621C315.528 54.0697 315.408 53.5163 315.18 53.002C314.958 52.4811 314.626 52.0579 314.184 51.7324C313.741 51.4069 313.188 51.2441 312.523 51.2441C312.029 51.2441 311.573 51.3483 311.156 51.5566C310.746 51.765 310.391 52.0645 310.092 52.4551C309.799 52.8392 309.571 53.2982 309.408 53.832C309.252 54.3594 309.174 54.9453 309.174 55.5898V56.0098C309.174 56.5957 309.258 57.1426 309.428 57.6504C309.604 58.1517 309.851 58.5944 310.17 58.9785C310.495 59.3626 310.88 59.6621 311.322 59.877C311.765 60.0918 312.253 60.1992 312.787 60.1992C313.412 60.1992 313.965 60.0853 314.447 59.8574C314.929 59.623 315.362 59.2552 315.746 58.7539L316.479 59.3203C316.251 59.6589 315.964 59.9714 315.619 60.2578C315.281 60.5443 314.874 60.7721 314.398 60.9414C313.923 61.1107 313.37 61.1953 312.738 61.1953ZM325.336 58.3047C325.336 58.0182 325.264 57.735 325.121 57.4551C324.978 57.1751 324.701 56.918 324.291 56.6836C323.887 56.4492 323.292 56.2507 322.504 56.0879C321.918 55.9577 321.394 55.8112 320.932 55.6484C320.476 55.4857 320.092 55.2904 319.779 55.0625C319.467 54.8346 319.229 54.5612 319.066 54.2422C318.904 53.9232 318.822 53.5456 318.822 53.1094C318.822 52.7188 318.907 52.3509 319.076 52.0059C319.252 51.6543 319.499 51.3483 319.818 51.0879C320.144 50.821 320.535 50.6126 320.99 50.4629C321.452 50.3132 321.97 50.2383 322.543 50.2383C323.357 50.2383 324.053 50.3783 324.633 50.6582C325.219 50.9316 325.665 51.306 325.971 51.7812C326.283 52.2565 326.439 52.7936 326.439 53.3926H325.277C325.277 53.028 325.17 52.6829 324.955 52.3574C324.747 52.0319 324.438 51.765 324.027 51.5566C323.624 51.3483 323.129 51.2441 322.543 51.2441C321.938 51.2441 321.446 51.3353 321.068 51.5176C320.691 51.6999 320.414 51.931 320.238 52.2109C320.069 52.4909 319.984 52.7806 319.984 53.0801C319.984 53.3145 320.02 53.5293 320.092 53.7246C320.17 53.9134 320.307 54.0892 320.502 54.252C320.704 54.4147 320.99 54.5677 321.361 54.7109C321.732 54.8542 322.214 54.9941 322.807 55.1309C323.66 55.3197 324.356 55.5508 324.896 55.8242C325.443 56.0911 325.847 56.4232 326.107 56.8203C326.368 57.2109 326.498 57.6862 326.498 58.2461C326.498 58.6823 326.407 59.0827 326.225 59.4473C326.042 59.8053 325.779 60.1146 325.434 60.375C325.095 60.6354 324.685 60.8372 324.203 60.9805C323.728 61.1237 323.194 61.1953 322.602 61.1953C321.71 61.1953 320.954 61.0488 320.336 60.7559C319.724 60.4564 319.258 60.0658 318.939 59.584C318.627 59.0957 318.471 58.5781 318.471 58.0312H319.633C319.672 58.5781 319.844 59.0111 320.15 59.3301C320.456 59.6426 320.831 59.8639 321.273 59.9941C321.723 60.1243 322.165 60.1895 322.602 60.1895C323.201 60.1895 323.702 60.1016 324.105 59.9258C324.509 59.75 324.815 59.5189 325.023 59.2324C325.232 58.946 325.336 58.6367 325.336 58.3047ZM330.443 50.4336V61H329.281V50.4336H330.443ZM329.076 47.377C329.076 47.1556 329.145 46.9701 329.281 46.8203C329.424 46.6641 329.62 46.5859 329.867 46.5859C330.115 46.5859 330.31 46.6641 330.453 46.8203C330.603 46.9701 330.678 47.1556 330.678 47.377C330.678 47.5918 330.603 47.7773 330.453 47.9336C330.31 48.0833 330.115 48.1582 329.867 48.1582C329.62 48.1582 329.424 48.0833 329.281 47.9336C329.145 47.7773 329.076 47.5918 329.076 47.377ZM340.59 50.4336H341.674V60.8145C341.674 61.7324 341.498 62.5202 341.146 63.1777C340.801 63.8353 340.31 64.3398 339.672 64.6914C339.04 65.043 338.295 65.2188 337.436 65.2188C336.999 65.2188 336.55 65.1504 336.088 65.0137C335.632 64.8835 335.199 64.6816 334.789 64.4082C334.385 64.1413 334.04 63.8092 333.754 63.4121L334.408 62.6992C334.838 63.2201 335.297 63.6009 335.785 63.8418C336.273 64.0892 336.801 64.2129 337.367 64.2129C338.038 64.2129 338.604 64.0794 339.066 63.8125C339.535 63.5456 339.89 63.1615 340.131 62.6602C340.378 62.1589 340.502 61.5566 340.502 60.8535V52.7578L340.59 50.4336ZM333.168 55.8242V55.6191C333.168 54.7988 333.259 54.0599 333.441 53.4023C333.63 52.7383 333.9 52.1719 334.252 51.7031C334.604 51.2279 335.03 50.8665 335.531 50.6191C336.039 50.3652 336.612 50.2383 337.25 50.2383C337.862 50.2383 338.406 50.3392 338.881 50.541C339.356 50.7428 339.766 51.0326 340.111 51.4102C340.456 51.7878 340.733 52.237 340.941 52.7578C341.156 53.2786 341.312 53.8581 341.41 54.4961V57.1035C341.332 57.7025 341.189 58.2526 340.98 58.7539C340.772 59.2487 340.495 59.6816 340.15 60.0527C339.805 60.4173 339.389 60.7005 338.9 60.9023C338.419 61.0977 337.862 61.1953 337.23 61.1953C336.599 61.1953 336.033 61.0651 335.531 60.8047C335.03 60.5443 334.604 60.1764 334.252 59.7012C333.9 59.2194 333.63 58.6497 333.441 57.9922C333.259 57.3346 333.168 56.612 333.168 55.8242ZM334.34 55.6191V55.8242C334.34 56.4427 334.402 57.0156 334.525 57.543C334.649 58.0703 334.838 58.5293 335.092 58.9199C335.346 59.3105 335.668 59.6165 336.059 59.8379C336.449 60.0592 336.908 60.1699 337.436 60.1699C338.106 60.1699 338.669 60.043 339.125 59.7891C339.581 59.5286 339.942 59.1868 340.209 58.7637C340.476 58.334 340.671 57.8652 340.795 57.3574V54.3203C340.723 53.9753 340.613 53.6237 340.463 53.2656C340.32 52.9076 340.118 52.5788 339.857 52.2793C339.604 51.9733 339.278 51.7292 338.881 51.5469C338.49 51.3581 338.015 51.2637 337.455 51.2637C336.921 51.2637 336.456 51.3743 336.059 51.5957C335.668 51.8171 335.346 52.1263 335.092 52.5234C334.838 52.9141 334.649 53.373 334.525 53.9004C334.402 54.4277 334.34 55.0007 334.34 55.6191ZM345.893 52.6895V61H344.73V50.4336H345.844L345.893 52.6895ZM345.629 55.0625L345.111 54.7695C345.15 54.1445 345.277 53.5586 345.492 53.0117C345.707 52.4648 345.997 51.9831 346.361 51.5664C346.732 51.1497 347.165 50.8242 347.66 50.5898C348.161 50.3555 348.715 50.2383 349.32 50.2383C349.848 50.2383 350.32 50.3099 350.736 50.4531C351.153 50.5964 351.508 50.8242 351.801 51.1367C352.094 51.4492 352.315 51.8496 352.465 52.3379C352.621 52.8262 352.699 53.4219 352.699 54.125V61H351.527V54.1152C351.527 53.3861 351.426 52.8164 351.225 52.4062C351.023 51.9896 350.736 51.6934 350.365 51.5176C349.994 51.3418 349.555 51.2539 349.047 51.2539C348.487 51.2539 347.995 51.3776 347.572 51.625C347.156 51.8659 346.804 52.1816 346.518 52.5723C346.238 52.9564 346.023 53.3698 345.873 53.8125C345.723 54.2487 345.642 54.6654 345.629 55.0625Z" fill="white"/>
</svg>
