<svg width="641" height="36" viewBox="0 0 641 36" fill="none" xmlns="http://www.w3.org/2000/svg">
<path d="M4.62512 29L0.00511726 0.649998H3.29512L6.34012 21.02L10.1551 0.754999H12.9551L16.8051 21.125L19.7801 0.649998H23.0001L18.4501 29H15.5801L11.6251 8L7.63512 29H4.62512ZM26.2382 29V0.649998H29.9832V10.87C30.6598 10.2167 31.4182 9.65667 32.2582 9.19C33.0982 8.72333 34.0315 8.49 35.0582 8.49C35.8515 8.49 36.4582 8.7 36.8782 9.12C37.3215 9.54 37.6248 10.065 37.7882 10.695C37.9748 11.325 38.0682 11.9667 38.0682 12.62V29H34.3232V13.705C34.3232 12.9817 34.2182 12.4217 34.0082 12.025C33.7982 11.6283 33.3665 11.43 32.7132 11.43C32.2698 11.43 31.8032 11.5583 31.3132 11.815C30.8465 12.0717 30.4032 12.3867 29.9832 12.76V29H26.2382ZM47.3191 29.28C45.7324 29.28 44.5074 28.9767 43.6441 28.37C42.7808 27.74 42.1741 26.83 41.8241 25.64C41.4974 24.4267 41.3341 22.945 41.3341 21.195V16.575C41.3341 14.7783 41.5091 13.285 41.8591 12.095C42.2091 10.905 42.8158 10.0067 43.6791 9.4C44.5658 8.79333 45.7791 8.49 47.3191 8.49C49.0224 8.49 50.2708 8.84 51.0641 9.54C51.8808 10.24 52.4174 11.255 52.6741 12.585C52.9308 13.8917 53.0591 15.4667 53.0591 17.31V18.955H45.0791V23.015C45.0791 23.8317 45.1491 24.4967 45.2891 25.01C45.4524 25.5233 45.6974 25.9083 46.0241 26.165C46.3741 26.3983 46.8174 26.515 47.3541 26.515C47.9141 26.515 48.3341 26.3867 48.6141 26.13C48.9174 25.85 49.1158 25.465 49.2091 24.975C49.3258 24.4617 49.3841 23.8667 49.3841 23.19V21.965H53.0241V22.735C53.0241 24.765 52.5924 26.3633 51.7291 27.53C50.8658 28.6967 49.3958 29.28 47.3191 29.28ZM45.0791 16.925H49.3841V15.105C49.3841 14.265 49.3374 13.565 49.2441 13.005C49.1508 12.4217 48.9524 11.99 48.6491 11.71C48.3691 11.4067 47.9141 11.255 47.2841 11.255C46.6774 11.255 46.2108 11.395 45.8841 11.675C45.5808 11.955 45.3708 12.4333 45.2541 13.11C45.1374 13.7633 45.0791 14.6733 45.0791 15.84V16.925ZM56.5555 29V8.77H60.3005V11.64C61.0472 10.4033 61.7939 9.575 62.5405 9.155C63.2872 8.735 64.0339 8.525 64.7805 8.525C64.8739 8.525 64.9555 8.525 65.0255 8.525C65.1189 8.525 65.2355 8.53667 65.3755 8.56V12.69C65.0955 12.5733 64.7689 12.48 64.3955 12.41C64.0455 12.3167 63.6839 12.27 63.3105 12.27C62.7272 12.27 62.1905 12.41 61.7005 12.69C61.2339 12.9467 60.7672 13.46 60.3005 14.23V29H56.5555ZM73.2957 29.28C71.709 29.28 70.484 28.9767 69.6207 28.37C68.7573 27.74 68.1507 26.83 67.8007 25.64C67.474 24.4267 67.3107 22.945 67.3107 21.195V16.575C67.3107 14.7783 67.4857 13.285 67.8357 12.095C68.1857 10.905 68.7923 10.0067 69.6557 9.4C70.5423 8.79333 71.7557 8.49 73.2957 8.49C74.999 8.49 76.2473 8.84 77.0407 9.54C77.8573 10.24 78.394 11.255 78.6507 12.585C78.9073 13.8917 79.0357 15.4667 79.0357 17.31V18.955H71.0557V23.015C71.0557 23.8317 71.1257 24.4967 71.2657 25.01C71.429 25.5233 71.674 25.9083 72.0007 26.165C72.3507 26.3983 72.794 26.515 73.3307 26.515C73.8907 26.515 74.3107 26.3867 74.5907 26.13C74.894 25.85 75.0923 25.465 75.1857 24.975C75.3023 24.4617 75.3607 23.8667 75.3607 23.19V21.965H79.0007V22.735C79.0007 24.765 78.569 26.3633 77.7057 27.53C76.8423 28.6967 75.3723 29.28 73.2957 29.28ZM71.0557 16.925H75.3607V15.105C75.3607 14.265 75.314 13.565 75.2207 13.005C75.1273 12.4217 74.929 11.99 74.6257 11.71C74.3457 11.4067 73.8907 11.255 73.2607 11.255C72.654 11.255 72.1873 11.395 71.8607 11.675C71.5573 11.955 71.3473 12.4333 71.2307 13.11C71.114 13.7633 71.0557 14.6733 71.0557 15.84V16.925ZM89.2002 29L95.2202 0.649998H99.0352L105.09 29H101.345L100.05 21.86H94.2752L92.9102 29H89.2002ZM94.8002 19.025H99.5252L97.1452 6.25L94.8002 19.025ZM113.252 29.28C111.665 29.28 110.44 28.9767 109.577 28.37C108.713 27.74 108.107 26.83 107.757 25.64C107.43 24.4267 107.267 22.945 107.267 21.195V16.575C107.267 14.7783 107.442 13.285 107.792 12.095C108.142 10.905 108.748 10.0067 109.612 9.4C110.498 8.79333 111.712 8.49 113.252 8.49C114.955 8.49 116.203 8.84 116.997 9.54C117.813 10.24 118.35 11.255 118.607 12.585C118.863 13.8917 118.992 15.4667 118.992 17.31V18.955H111.012V23.015C111.012 23.8317 111.082 24.4967 111.222 25.01C111.385 25.5233 111.63 25.9083 111.957 26.165C112.307 26.3983 112.75 26.515 113.287 26.515C113.847 26.515 114.267 26.3867 114.547 26.13C114.85 25.85 115.048 25.465 115.142 24.975C115.258 24.4617 115.317 23.8667 115.317 23.19V21.965H118.957V22.735C118.957 24.765 118.525 26.3633 117.662 27.53C116.798 28.6967 115.328 29.28 113.252 29.28ZM111.012 16.925H115.317V15.105C115.317 14.265 115.27 13.565 115.177 13.005C115.083 12.4217 114.885 11.99 114.582 11.71C114.302 11.4067 113.847 11.255 113.217 11.255C112.61 11.255 112.143 11.395 111.817 11.675C111.513 11.955 111.303 12.4333 111.187 13.11C111.07 13.7633 111.012 14.6733 111.012 15.84V16.925ZM127.073 29.28C125.416 29.28 124.086 28.7667 123.083 27.74C122.08 26.69 121.508 25.3133 121.368 23.61L124.483 22.665C124.67 23.9483 124.985 24.9167 125.428 25.57C125.871 26.2 126.525 26.515 127.388 26.515C128.065 26.515 128.578 26.3283 128.928 25.955C129.278 25.5583 129.453 25.0333 129.453 24.38C129.453 23.7967 129.325 23.2717 129.068 22.805C128.811 22.3383 128.391 21.86 127.808 21.37L124.343 18.395C123.643 17.7883 123.048 17.1117 122.558 16.365C122.091 15.6183 121.858 14.65 121.858 13.46C121.858 12.3867 122.068 11.4883 122.488 10.765C122.931 10.0183 123.538 9.45833 124.308 9.085C125.101 8.68833 126.023 8.49 127.073 8.49C128.683 8.49 129.908 9.015 130.748 10.065C131.611 11.0917 132.101 12.34 132.218 13.81L129.698 14.755C129.605 14.055 129.465 13.4483 129.278 12.935C129.091 12.3983 128.835 11.99 128.508 11.71C128.181 11.4067 127.75 11.255 127.213 11.255C126.606 11.255 126.116 11.465 125.743 11.885C125.393 12.2817 125.218 12.76 125.218 13.32C125.218 13.67 125.288 14.02 125.428 14.37C125.591 14.6967 125.86 15.0233 126.233 15.35L129.803 18.64C130.293 19.0833 130.748 19.5617 131.168 20.075C131.611 20.5883 131.973 21.1717 132.253 21.825C132.533 22.4783 132.673 23.2367 132.673 24.1C132.673 25.2433 132.44 26.2 131.973 26.97C131.506 27.74 130.853 28.3233 130.013 28.72C129.173 29.0933 128.193 29.28 127.073 29.28ZM140.864 29.28C139.814 29.28 138.962 29.0817 138.309 28.685C137.679 28.2883 137.212 27.7283 136.909 27.005C136.629 26.2817 136.489 25.43 136.489 24.45V11.255H134.354V8.77H136.489V2.855H140.234V8.77H143.489V11.255H140.234V24.205C140.234 24.9983 140.362 25.57 140.619 25.92C140.876 26.2467 141.366 26.41 142.089 26.41C142.276 26.41 142.486 26.3983 142.719 26.375C142.976 26.3517 143.221 26.3283 143.454 26.305V29.07C142.987 29.14 142.556 29.1867 142.159 29.21C141.762 29.2567 141.331 29.28 140.864 29.28ZM146.346 29V0.649998H150.091V10.87C150.767 10.2167 151.526 9.65667 152.366 9.19C153.206 8.72333 154.139 8.49 155.166 8.49C155.959 8.49 156.566 8.7 156.986 9.12C157.429 9.54 157.732 10.065 157.896 10.695C158.082 11.325 158.176 11.9667 158.176 12.62V29H154.431V13.705C154.431 12.9817 154.326 12.4217 154.116 12.025C153.906 11.6283 153.474 11.43 152.821 11.43C152.377 11.43 151.911 11.5583 151.421 11.815C150.954 12.0717 150.511 12.3867 150.091 12.76V29H146.346ZM167.427 29.28C165.84 29.28 164.615 28.9767 163.752 28.37C162.888 27.74 162.282 26.83 161.932 25.64C161.605 24.4267 161.442 22.945 161.442 21.195V16.575C161.442 14.7783 161.617 13.285 161.967 12.095C162.317 10.905 162.923 10.0067 163.787 9.4C164.673 8.79333 165.887 8.49 167.427 8.49C169.13 8.49 170.378 8.84 171.172 9.54C171.988 10.24 172.525 11.255 172.782 12.585C173.038 13.8917 173.167 15.4667 173.167 17.31V18.955H165.187V23.015C165.187 23.8317 165.257 24.4967 165.397 25.01C165.56 25.5233 165.805 25.9083 166.132 26.165C166.482 26.3983 166.925 26.515 167.462 26.515C168.022 26.515 168.442 26.3867 168.722 26.13C169.025 25.85 169.223 25.465 169.317 24.975C169.433 24.4617 169.492 23.8667 169.492 23.19V21.965H173.132V22.735C173.132 24.765 172.7 26.3633 171.837 27.53C170.973 28.6967 169.503 29.28 167.427 29.28ZM165.187 16.925H169.492V15.105C169.492 14.265 169.445 13.565 169.352 13.005C169.258 12.4217 169.06 11.99 168.757 11.71C168.477 11.4067 168.022 11.255 167.392 11.255C166.785 11.255 166.318 11.395 165.992 11.675C165.688 11.955 165.478 12.4333 165.362 13.11C165.245 13.7633 165.187 14.6733 165.187 15.84V16.925ZM181.948 29.28C180.898 29.28 180.046 29.0817 179.393 28.685C178.763 28.2883 178.296 27.7283 177.993 27.005C177.713 26.2817 177.573 25.43 177.573 24.45V11.255H175.438V8.77H177.573V2.855H181.318V8.77H184.573V11.255H181.318V24.205C181.318 24.9983 181.446 25.57 181.703 25.92C181.96 26.2467 182.45 26.41 183.173 26.41C183.36 26.41 183.57 26.3983 183.803 26.375C184.06 26.3517 184.305 26.3283 184.538 26.305V29.07C184.071 29.14 183.64 29.1867 183.243 29.21C182.846 29.2567 182.415 29.28 181.948 29.28ZM187.57 29V8.77H191.315V29H187.57ZM187.57 5.76V1.84H191.315V5.76H187.57ZM200.853 29.28C199.196 29.28 197.936 28.9533 197.073 28.3C196.233 27.6233 195.661 26.6783 195.358 25.465C195.078 24.2517 194.938 22.84 194.938 21.23V16.575C194.938 14.8717 195.089 13.425 195.393 12.235C195.696 11.0217 196.268 10.1 197.108 9.47C197.971 8.81667 199.219 8.49 200.853 8.49C202.323 8.49 203.454 8.735 204.248 9.225C205.064 9.69167 205.624 10.4033 205.928 11.36C206.231 12.2933 206.383 13.46 206.383 14.86V16.05H202.988V14.825C202.988 13.9383 202.929 13.2383 202.813 12.725C202.696 12.2117 202.486 11.8383 202.183 11.605C201.879 11.3717 201.448 11.255 200.888 11.255C200.281 11.255 199.814 11.395 199.488 11.675C199.161 11.955 198.939 12.4333 198.823 13.11C198.729 13.7633 198.683 14.6617 198.683 15.805V22.175C198.683 23.9017 198.846 25.0567 199.173 25.64C199.499 26.2233 200.083 26.515 200.923 26.515C201.553 26.515 202.008 26.375 202.288 26.095C202.591 25.7917 202.778 25.3717 202.848 24.835C202.941 24.2983 202.988 23.6917 202.988 23.015V21.37H206.383V22.77C206.383 24.1233 206.219 25.29 205.893 26.27C205.589 27.25 205.029 27.9967 204.213 28.51C203.419 29.0233 202.299 29.28 200.853 29.28ZM214.402 29.28C212.746 29.28 211.416 28.7667 210.412 27.74C209.409 26.69 208.837 25.3133 208.697 23.61L211.812 22.665C211.999 23.9483 212.314 24.9167 212.757 25.57C213.201 26.2 213.854 26.515 214.717 26.515C215.394 26.515 215.907 26.3283 216.257 25.955C216.607 25.5583 216.782 25.0333 216.782 24.38C216.782 23.7967 216.654 23.2717 216.397 22.805C216.141 22.3383 215.721 21.86 215.137 21.37L211.672 18.395C210.972 17.7883 210.377 17.1117 209.887 16.365C209.421 15.6183 209.187 14.65 209.187 13.46C209.187 12.3867 209.397 11.4883 209.817 10.765C210.261 10.0183 210.867 9.45833 211.637 9.085C212.431 8.68833 213.352 8.49 214.402 8.49C216.012 8.49 217.237 9.015 218.077 10.065C218.941 11.0917 219.431 12.34 219.547 13.81L217.027 14.755C216.934 14.055 216.794 13.4483 216.607 12.935C216.421 12.3983 216.164 11.99 215.837 11.71C215.511 11.4067 215.079 11.255 214.542 11.255C213.936 11.255 213.446 11.465 213.072 11.885C212.722 12.2817 212.547 12.76 212.547 13.32C212.547 13.67 212.617 14.02 212.757 14.37C212.921 14.6967 213.189 15.0233 213.562 15.35L217.132 18.64C217.622 19.0833 218.077 19.5617 218.497 20.075C218.941 20.5883 219.302 21.1717 219.582 21.825C219.862 22.4783 220.002 23.2367 220.002 24.1C220.002 25.2433 219.769 26.2 219.302 26.97C218.836 27.74 218.182 28.3233 217.342 28.72C216.502 29.0933 215.522 29.28 214.402 29.28ZM222.908 33.585L222.313 31.975C222.943 31.765 223.433 31.3917 223.783 30.855C224.156 30.3417 224.343 29.7233 224.343 29H222.348V24.975H226.198V28.93C226.198 30.1667 225.93 31.1467 225.393 31.87C224.856 32.6167 224.028 33.1883 222.908 33.585ZM237.644 29V0.649998H241.599V26.165H248.844V29H237.644ZM256.806 29.28C255.312 29.28 254.134 28.9767 253.271 28.37C252.407 27.7633 251.789 26.9 251.416 25.78C251.066 24.66 250.891 23.3417 250.891 21.825V15.945C250.891 14.4283 251.066 13.11 251.416 11.99C251.789 10.87 252.407 10.0067 253.271 9.4C254.134 8.79333 255.312 8.49 256.806 8.49C258.299 8.49 259.466 8.79333 260.306 9.4C261.169 10.0067 261.776 10.87 262.126 11.99C262.499 13.11 262.686 14.4283 262.686 15.945V21.825C262.686 23.3417 262.499 24.66 262.126 25.78C261.776 26.9 261.169 27.7633 260.306 28.37C259.466 28.9767 258.299 29.28 256.806 29.28ZM256.806 26.515C257.529 26.515 258.031 26.305 258.311 25.885C258.614 25.465 258.789 24.9167 258.836 24.24C258.906 23.54 258.941 22.8167 258.941 22.07V15.735C258.941 14.965 258.906 14.2417 258.836 13.565C258.789 12.8883 258.614 12.34 258.311 11.92C258.031 11.4767 257.529 11.255 256.806 11.255C256.082 11.255 255.569 11.4767 255.266 11.92C254.962 12.34 254.776 12.8883 254.706 13.565C254.659 14.2417 254.636 14.965 254.636 15.735V22.07C254.636 22.8167 254.659 23.54 254.706 24.24C254.776 24.9167 254.962 25.465 255.266 25.885C255.569 26.305 256.082 26.515 256.806 26.515ZM271.359 35.265C270.145 35.265 269.049 35.1367 268.069 34.88C267.089 34.6233 266.319 34.215 265.759 33.655C265.199 33.095 264.919 32.36 264.919 31.45C264.919 30.7967 265.059 30.225 265.339 29.735C265.619 29.245 265.98 28.825 266.424 28.475C266.867 28.1017 267.334 27.7983 267.824 27.565C267.17 27.3783 266.68 27.0867 266.354 26.69C266.027 26.27 265.864 25.8383 265.864 25.395C265.864 24.6483 266.062 24.0067 266.459 23.47C266.855 22.9333 267.404 22.35 268.104 21.72C267.334 21.1367 266.75 20.39 266.354 19.48C265.957 18.57 265.759 17.31 265.759 15.7C265.759 14.1133 265.969 12.795 266.389 11.745C266.832 10.6717 267.474 9.86667 268.314 9.33C269.177 8.77 270.227 8.49 271.464 8.49C272.56 8.49 273.435 8.67667 274.089 9.05C274.765 9.42333 275.279 9.98333 275.629 10.73C275.745 10.5433 276.06 10.2283 276.574 9.785C277.087 9.31833 277.682 8.93333 278.359 8.63L278.919 8.385L279.864 10.8C279.56 10.8467 279.152 10.9633 278.639 11.15C278.149 11.3133 277.682 11.4883 277.239 11.675C276.819 11.8383 276.55 11.9783 276.434 12.095C276.597 12.4917 276.737 13.0633 276.854 13.81C276.994 14.5567 277.064 15.2217 277.064 15.805C277.064 17.1817 276.889 18.395 276.539 19.445C276.189 20.495 275.605 21.3233 274.789 21.93C273.995 22.5133 272.887 22.805 271.464 22.805C271.16 22.805 270.834 22.7817 270.484 22.735C270.134 22.6883 269.819 22.63 269.539 22.56C269.399 22.77 269.247 23.015 269.084 23.295C268.944 23.575 268.874 23.8433 268.874 24.1C268.874 24.3567 269.002 24.5667 269.259 24.73C269.539 24.87 269.97 24.9633 270.554 25.01L273.704 25.29C275.29 25.43 276.469 25.9083 277.239 26.725C278.009 27.5417 278.394 28.7083 278.394 30.225C278.394 31.3217 278.137 32.2433 277.624 32.99C277.11 33.76 276.329 34.3317 275.279 34.705C274.252 35.0783 272.945 35.265 271.359 35.265ZM271.639 32.325C272.969 32.325 273.949 32.1617 274.579 31.835C275.209 31.5317 275.524 31.03 275.524 30.33C275.524 29.91 275.442 29.56 275.279 29.28C275.139 29 274.87 28.7783 274.474 28.615C274.077 28.4517 273.505 28.335 272.759 28.265L269.574 27.985C269.317 28.2417 269.072 28.4983 268.839 28.755C268.605 29.0117 268.419 29.28 268.279 29.56C268.139 29.8633 268.069 30.1783 268.069 30.505C268.069 31.1117 268.325 31.5667 268.839 31.87C269.352 32.1733 270.285 32.325 271.639 32.325ZM271.464 20.18C272 20.18 272.42 20.0867 272.724 19.9C273.05 19.69 273.295 19.3983 273.459 19.025C273.622 18.6283 273.727 18.15 273.774 17.59C273.844 17.03 273.879 16.4 273.879 15.7C273.879 15 273.844 14.37 273.774 13.81C273.727 13.2267 273.622 12.7367 273.459 12.34C273.319 11.92 273.085 11.605 272.759 11.395C272.455 11.185 272.035 11.08 271.499 11.08C270.985 11.08 270.554 11.185 270.204 11.395C269.877 11.605 269.632 11.9083 269.469 12.305C269.305 12.6783 269.189 13.1567 269.119 13.74C269.049 14.3 269.014 14.9533 269.014 15.7C269.014 16.33 269.037 16.925 269.084 17.485C269.154 18.0217 269.27 18.4883 269.434 18.885C269.62 19.2817 269.877 19.5967 270.204 19.83C270.53 20.0633 270.95 20.18 271.464 20.18ZM281.564 29V8.77H285.309V29H281.564ZM281.564 5.76V1.84H285.309V5.76H281.564ZM294.847 29.28C293.19 29.28 291.93 28.9533 291.067 28.3C290.227 27.6233 289.655 26.6783 289.352 25.465C289.072 24.2517 288.932 22.84 288.932 21.23V16.575C288.932 14.8717 289.083 13.425 289.387 12.235C289.69 11.0217 290.262 10.1 291.102 9.47C291.965 8.81667 293.213 8.49 294.847 8.49C296.317 8.49 297.448 8.735 298.242 9.225C299.058 9.69167 299.618 10.4033 299.922 11.36C300.225 12.2933 300.377 13.46 300.377 14.86V16.05H296.982V14.825C296.982 13.9383 296.923 13.2383 296.807 12.725C296.69 12.2117 296.48 11.8383 296.177 11.605C295.873 11.3717 295.442 11.255 294.882 11.255C294.275 11.255 293.808 11.395 293.482 11.675C293.155 11.955 292.933 12.4333 292.817 13.11C292.723 13.7633 292.677 14.6617 292.677 15.805V22.175C292.677 23.9017 292.84 25.0567 293.167 25.64C293.493 26.2233 294.077 26.515 294.917 26.515C295.547 26.515 296.002 26.375 296.282 26.095C296.585 25.7917 296.772 25.3717 296.842 24.835C296.935 24.2983 296.982 23.6917 296.982 23.015V21.37H300.377V22.77C300.377 24.1233 300.213 25.29 299.887 26.27C299.583 27.25 299.023 27.9967 298.207 28.51C297.413 29.0233 296.293 29.28 294.847 29.28ZM315.344 29.28C314.551 29.28 313.851 29.0583 313.244 28.615C312.638 28.1483 312.159 27.565 311.809 26.865C311.459 26.1417 311.284 25.3833 311.284 24.59C311.284 23.33 311.494 22.2683 311.914 21.405C312.334 20.5417 312.906 19.8183 313.629 19.235C314.376 18.6283 315.228 18.1033 316.184 17.66C317.164 17.2167 318.191 16.785 319.264 16.365V14.93C319.264 14.1133 319.218 13.4367 319.124 12.9C319.031 12.3633 318.833 11.9667 318.529 11.71C318.249 11.43 317.818 11.29 317.234 11.29C316.721 11.29 316.301 11.4067 315.974 11.64C315.671 11.8733 315.449 12.2117 315.309 12.655C315.169 13.075 315.099 13.5767 315.099 14.16V15.175L311.389 15.035C311.436 12.795 311.949 11.15 312.929 10.1C313.909 9.02667 315.426 8.49 317.479 8.49C319.486 8.49 320.909 9.03833 321.749 10.135C322.589 11.2317 323.009 12.8183 323.009 14.895V24.135C323.009 24.765 323.021 25.3717 323.044 25.955C323.091 26.5383 323.138 27.0867 323.184 27.6C323.254 28.09 323.313 28.5567 323.359 29H319.929C319.859 28.6267 319.766 28.16 319.649 27.6C319.556 27.0167 319.486 26.4917 319.439 26.025C319.206 26.8183 318.751 27.565 318.074 28.265C317.421 28.9417 316.511 29.28 315.344 29.28ZM316.814 26.06C317.188 26.06 317.538 25.955 317.864 25.745C318.191 25.535 318.483 25.3017 318.739 25.045C318.996 24.765 319.171 24.5433 319.264 24.38V18.64C318.681 18.9667 318.133 19.2933 317.619 19.62C317.106 19.9467 316.651 20.2967 316.254 20.67C315.881 21.02 315.578 21.4283 315.344 21.895C315.134 22.3383 315.029 22.8517 315.029 23.435C315.029 24.2517 315.181 24.8933 315.484 25.36C315.788 25.8267 316.231 26.06 316.814 26.06ZM326.607 29V8.77H330.352V10.765C331.028 10.135 331.775 9.59833 332.592 9.155C333.408 8.71167 334.307 8.49 335.287 8.49C336.103 8.49 336.722 8.7 337.142 9.12C337.585 9.54 337.888 10.065 338.052 10.695C338.238 11.325 338.332 11.9667 338.332 12.62V29H334.587V13.705C334.587 12.9817 334.482 12.4217 334.272 12.025C334.062 11.6283 333.63 11.43 332.977 11.43C332.557 11.43 332.113 11.5583 331.647 11.815C331.203 12.0483 330.772 12.34 330.352 12.69V29H326.607ZM346.678 29.28C344.974 29.28 343.703 28.6617 342.863 27.425C342.023 26.165 341.603 24.0417 341.603 21.055V17.135C341.603 15.595 341.731 14.1717 341.988 12.865C342.244 11.535 342.723 10.4733 343.423 9.68C344.146 8.88667 345.196 8.49 346.573 8.49C347.249 8.49 347.868 8.64167 348.428 8.945C348.988 9.24833 349.489 9.62167 349.933 10.065V0.649998H353.678V29H349.933V27.705C349.489 28.1717 348.999 28.5567 348.463 28.86C347.949 29.14 347.354 29.28 346.678 29.28ZM347.623 26.34C347.973 26.34 348.346 26.2817 348.743 26.165C349.139 26.025 349.536 25.8267 349.933 25.57V12.305C349.606 12.0717 349.244 11.8733 348.848 11.71C348.451 11.5233 348.019 11.43 347.553 11.43C346.689 11.43 346.106 11.85 345.803 12.69C345.499 13.5067 345.348 14.4983 345.348 15.665V21.37C345.348 22.3033 345.394 23.155 345.488 23.925C345.604 24.6717 345.826 25.2667 346.153 25.71C346.479 26.13 346.969 26.34 347.623 26.34ZM368.899 29V3.59H364.104V0.649998H377.509V3.59H372.854V29H368.899ZM380.172 29V8.77H383.917V29H380.172ZM380.172 5.76V1.84H383.917V5.76H380.172ZM387.925 29V8.77H391.39V10.695C392.067 9.925 392.813 9.35333 393.63 8.98C394.447 8.60667 395.287 8.42 396.15 8.42C396.897 8.42 397.562 8.60667 398.145 8.98C398.752 9.35333 399.183 10.0183 399.44 10.975C400.163 10.0883 400.945 9.44667 401.785 9.05C402.648 8.63 403.547 8.42 404.48 8.42C405.133 8.42 405.728 8.58333 406.265 8.91C406.802 9.21333 407.233 9.715 407.56 10.415C407.887 11.0917 408.05 11.99 408.05 13.11V29H404.62V13.355C404.62 12.375 404.457 11.7217 404.13 11.395C403.827 11.045 403.407 10.87 402.87 10.87C402.357 10.87 401.82 11.0217 401.26 11.325C400.7 11.605 400.187 12.0017 399.72 12.515C399.72 12.6083 399.72 12.7017 399.72 12.795C399.72 12.8883 399.72 12.9933 399.72 13.11V29H396.29V13.355C396.29 12.375 396.127 11.7217 395.8 11.395C395.497 11.045 395.077 10.87 394.54 10.87C394.027 10.87 393.49 11.0217 392.93 11.325C392.393 11.605 391.88 12.0017 391.39 12.515V29H387.925ZM417.314 29.28C415.728 29.28 414.503 28.9767 413.639 28.37C412.776 27.74 412.169 26.83 411.819 25.64C411.493 24.4267 411.329 22.945 411.329 21.195V16.575C411.329 14.7783 411.504 13.285 411.854 12.095C412.204 10.905 412.811 10.0067 413.674 9.4C414.561 8.79333 415.774 8.49 417.314 8.49C419.018 8.49 420.266 8.84 421.059 9.54C421.876 10.24 422.413 11.255 422.669 12.585C422.926 13.8917 423.054 15.4667 423.054 17.31V18.955H415.074V23.015C415.074 23.8317 415.144 24.4967 415.284 25.01C415.448 25.5233 415.693 25.9083 416.019 26.165C416.369 26.3983 416.813 26.515 417.349 26.515C417.909 26.515 418.329 26.3867 418.609 26.13C418.913 25.85 419.111 25.465 419.204 24.975C419.321 24.4617 419.379 23.8667 419.379 23.19V21.965H423.019V22.735C423.019 24.765 422.588 26.3633 421.724 27.53C420.861 28.6967 419.391 29.28 417.314 29.28ZM415.074 16.925H419.379V15.105C419.379 14.265 419.333 13.565 419.239 13.005C419.146 12.4217 418.948 11.99 418.644 11.71C418.364 11.4067 417.909 11.255 417.279 11.255C416.673 11.255 416.206 11.395 415.879 11.675C415.576 11.955 415.366 12.4333 415.249 13.11C415.133 13.7633 415.074 14.6733 415.074 15.84V16.925ZM426.271 19.865V17.03H434.076V19.865H426.271ZM442.381 29.28C440.724 29.28 439.394 28.7667 438.391 27.74C437.387 26.69 436.816 25.3133 436.676 23.61L439.791 22.665C439.977 23.9483 440.292 24.9167 440.736 25.57C441.179 26.2 441.832 26.515 442.696 26.515C443.372 26.515 443.886 26.3283 444.236 25.955C444.586 25.5583 444.761 25.0333 444.761 24.38C444.761 23.7967 444.632 23.2717 444.376 22.805C444.119 22.3383 443.699 21.86 443.116 21.37L439.651 18.395C438.951 17.7883 438.356 17.1117 437.866 16.365C437.399 15.6183 437.166 14.65 437.166 13.46C437.166 12.3867 437.376 11.4883 437.796 10.765C438.239 10.0183 438.846 9.45833 439.616 9.085C440.409 8.68833 441.331 8.49 442.381 8.49C443.991 8.49 445.216 9.015 446.056 10.065C446.919 11.0917 447.409 12.34 447.526 13.81L445.006 14.755C444.912 14.055 444.772 13.4483 444.586 12.935C444.399 12.3983 444.142 11.99 443.816 11.71C443.489 11.4067 443.057 11.255 442.521 11.255C441.914 11.255 441.424 11.465 441.051 11.885C440.701 12.2817 440.526 12.76 440.526 13.32C440.526 13.67 440.596 14.02 440.736 14.37C440.899 14.6967 441.167 15.0233 441.541 15.35L445.111 18.64C445.601 19.0833 446.056 19.5617 446.476 20.075C446.919 20.5883 447.281 21.1717 447.561 21.825C447.841 22.4783 447.981 23.2367 447.981 24.1C447.981 25.2433 447.747 26.2 447.281 26.97C446.814 27.74 446.161 28.3233 445.321 28.72C444.481 29.0933 443.501 29.28 442.381 29.28ZM454.422 29.28C453.628 29.28 452.928 29.0583 452.322 28.615C451.715 28.1483 451.237 27.565 450.887 26.865C450.537 26.1417 450.362 25.3833 450.362 24.59C450.362 23.33 450.572 22.2683 450.992 21.405C451.412 20.5417 451.983 19.8183 452.707 19.235C453.453 18.6283 454.305 18.1033 455.262 17.66C456.242 17.2167 457.268 16.785 458.342 16.365V14.93C458.342 14.1133 458.295 13.4367 458.202 12.9C458.108 12.3633 457.91 11.9667 457.607 11.71C457.327 11.43 456.895 11.29 456.312 11.29C455.798 11.29 455.378 11.4067 455.052 11.64C454.748 11.8733 454.527 12.2117 454.387 12.655C454.247 13.075 454.177 13.5767 454.177 14.16V15.175L450.467 15.035C450.513 12.795 451.027 11.15 452.007 10.1C452.987 9.02667 454.503 8.49 456.557 8.49C458.563 8.49 459.987 9.03833 460.827 10.135C461.667 11.2317 462.087 12.8183 462.087 14.895V24.135C462.087 24.765 462.098 25.3717 462.122 25.955C462.168 26.5383 462.215 27.0867 462.262 27.6C462.332 28.09 462.39 28.5567 462.437 29H459.007C458.937 28.6267 458.843 28.16 458.727 27.6C458.633 27.0167 458.563 26.4917 458.517 26.025C458.283 26.8183 457.828 27.565 457.152 28.265C456.498 28.9417 455.588 29.28 454.422 29.28ZM455.892 26.06C456.265 26.06 456.615 25.955 456.942 25.745C457.268 25.535 457.56 25.3017 457.817 25.045C458.073 24.765 458.248 24.5433 458.342 24.38V18.64C457.758 18.9667 457.21 19.2933 456.697 19.62C456.183 19.9467 455.728 20.2967 455.332 20.67C454.958 21.02 454.655 21.4283 454.422 21.895C454.212 22.3383 454.107 22.8517 454.107 23.435C454.107 24.2517 454.258 24.8933 454.562 25.36C454.865 25.8267 455.308 26.06 455.892 26.06ZM468.309 29L464.319 8.77H468.099L470.584 25.045L473.104 8.77H476.744L472.894 29H468.309ZM479.396 29V8.77H483.141V29H479.396ZM479.396 5.76V1.84H483.141V5.76H479.396ZM487.149 29V8.77H490.894V10.765C491.57 10.135 492.317 9.59833 493.134 9.155C493.95 8.71167 494.849 8.49 495.829 8.49C496.645 8.49 497.264 8.7 497.684 9.12C498.127 9.54 498.43 10.065 498.594 10.695C498.78 11.325 498.874 11.9667 498.874 12.62V29H495.129V13.705C495.129 12.9817 495.024 12.4217 494.814 12.025C494.604 11.6283 494.172 11.43 493.519 11.43C493.099 11.43 492.655 11.5583 492.189 11.815C491.745 12.0483 491.314 12.34 490.894 12.69V29H487.149ZM507.78 35.265C506.566 35.265 505.47 35.1367 504.49 34.88C503.51 34.6233 502.74 34.215 502.18 33.655C501.62 33.095 501.34 32.36 501.34 31.45C501.34 30.7967 501.48 30.225 501.76 29.735C502.04 29.245 502.401 28.825 502.845 28.475C503.288 28.1017 503.755 27.7983 504.245 27.565C503.591 27.3783 503.101 27.0867 502.775 26.69C502.448 26.27 502.285 25.8383 502.285 25.395C502.285 24.6483 502.483 24.0067 502.88 23.47C503.276 22.9333 503.825 22.35 504.525 21.72C503.755 21.1367 503.171 20.39 502.775 19.48C502.378 18.57 502.18 17.31 502.18 15.7C502.18 14.1133 502.39 12.795 502.81 11.745C503.253 10.6717 503.895 9.86667 504.735 9.33C505.598 8.77 506.648 8.49 507.885 8.49C508.981 8.49 509.856 8.67667 510.51 9.05C511.186 9.42333 511.7 9.98333 512.05 10.73C512.166 10.5433 512.481 10.2283 512.995 9.785C513.508 9.31833 514.103 8.93333 514.78 8.63L515.34 8.385L516.285 10.8C515.981 10.8467 515.573 10.9633 515.06 11.15C514.57 11.3133 514.103 11.4883 513.66 11.675C513.24 11.8383 512.971 11.9783 512.855 12.095C513.018 12.4917 513.158 13.0633 513.275 13.81C513.415 14.5567 513.485 15.2217 513.485 15.805C513.485 17.1817 513.31 18.395 512.96 19.445C512.61 20.495 512.026 21.3233 511.21 21.93C510.416 22.5133 509.308 22.805 507.885 22.805C507.581 22.805 507.255 22.7817 506.905 22.735C506.555 22.6883 506.24 22.63 505.96 22.56C505.82 22.77 505.668 23.015 505.505 23.295C505.365 23.575 505.295 23.8433 505.295 24.1C505.295 24.3567 505.423 24.5667 505.68 24.73C505.96 24.87 506.391 24.9633 506.975 25.01L510.125 25.29C511.711 25.43 512.89 25.9083 513.66 26.725C514.43 27.5417 514.815 28.7083 514.815 30.225C514.815 31.3217 514.558 32.2433 514.045 32.99C513.531 33.76 512.75 34.3317 511.7 34.705C510.673 35.0783 509.366 35.265 507.78 35.265ZM508.06 32.325C509.39 32.325 510.37 32.1617 511 31.835C511.63 31.5317 511.945 31.03 511.945 30.33C511.945 29.91 511.863 29.56 511.7 29.28C511.56 29 511.291 28.7783 510.895 28.615C510.498 28.4517 509.926 28.335 509.18 28.265L505.995 27.985C505.738 28.2417 505.493 28.4983 505.26 28.755C505.026 29.0117 504.84 29.28 504.7 29.56C504.56 29.8633 504.49 30.1783 504.49 30.505C504.49 31.1117 504.746 31.5667 505.26 31.87C505.773 32.1733 506.706 32.325 508.06 32.325ZM507.885 20.18C508.421 20.18 508.841 20.0867 509.145 19.9C509.471 19.69 509.716 19.3983 509.88 19.025C510.043 18.6283 510.148 18.15 510.195 17.59C510.265 17.03 510.3 16.4 510.3 15.7C510.3 15 510.265 14.37 510.195 13.81C510.148 13.2267 510.043 12.7367 509.88 12.34C509.74 11.92 509.506 11.605 509.18 11.395C508.876 11.185 508.456 11.08 507.92 11.08C507.406 11.08 506.975 11.185 506.625 11.395C506.298 11.605 506.053 11.9083 505.89 12.305C505.726 12.6783 505.61 13.1567 505.54 13.74C505.47 14.3 505.435 14.9533 505.435 15.7C505.435 16.33 505.458 16.925 505.505 17.485C505.575 18.0217 505.691 18.4883 505.855 18.885C506.041 19.2817 506.298 19.5967 506.625 19.83C506.951 20.0633 507.371 20.18 507.885 20.18ZM533.158 29.315C531.151 29.315 529.588 28.895 528.468 28.055C527.371 27.215 526.601 26.0833 526.158 24.66C525.738 23.2367 525.528 21.65 525.528 19.9V9.89C525.528 7.97667 525.738 6.30833 526.158 4.885C526.601 3.46167 527.371 2.365 528.468 1.595C529.588 0.801665 531.151 0.404999 533.158 0.404999C534.931 0.404999 536.331 0.731666 537.358 1.385C538.408 2.03833 539.154 2.97167 539.598 4.185C540.064 5.39833 540.298 6.85667 540.298 8.56V10.8H536.553V8.805C536.553 7.755 536.494 6.83333 536.378 6.04C536.284 5.22333 536.004 4.59333 535.538 4.15C535.071 3.70667 534.289 3.485 533.193 3.485C532.073 3.485 531.256 3.73 530.743 4.22C530.229 4.68667 529.891 5.36333 529.728 6.25C529.588 7.11333 529.518 8.12833 529.518 9.295V20.53C529.518 21.9533 529.634 23.085 529.868 23.925C530.101 24.7417 530.486 25.325 531.023 25.675C531.559 26.025 532.283 26.2 533.193 26.2C534.266 26.2 535.036 25.9667 535.503 25.5C535.969 25.01 536.261 24.345 536.378 23.505C536.494 22.665 536.553 21.685 536.553 20.565V18.465H540.298V20.565C540.298 22.2917 540.088 23.82 539.668 25.15C539.248 26.4567 538.524 27.4833 537.498 28.23C536.471 28.9533 535.024 29.315 533.158 29.315ZM549.315 29.28C547.822 29.28 546.644 28.9767 545.78 28.37C544.917 27.7633 544.299 26.9 543.925 25.78C543.575 24.66 543.4 23.3417 543.4 21.825V15.945C543.4 14.4283 543.575 13.11 543.925 11.99C544.299 10.87 544.917 10.0067 545.78 9.4C546.644 8.79333 547.822 8.49 549.315 8.49C550.809 8.49 551.975 8.79333 552.815 9.4C553.679 10.0067 554.285 10.87 554.635 11.99C555.009 13.11 555.195 14.4283 555.195 15.945V21.825C555.195 23.3417 555.009 24.66 554.635 25.78C554.285 26.9 553.679 27.7633 552.815 28.37C551.975 28.9767 550.809 29.28 549.315 29.28ZM549.315 26.515C550.039 26.515 550.54 26.305 550.82 25.885C551.124 25.465 551.299 24.9167 551.345 24.24C551.415 23.54 551.45 22.8167 551.45 22.07V15.735C551.45 14.965 551.415 14.2417 551.345 13.565C551.299 12.8883 551.124 12.34 550.82 11.92C550.54 11.4767 550.039 11.255 549.315 11.255C548.592 11.255 548.079 11.4767 547.775 11.92C547.472 12.34 547.285 12.8883 547.215 13.565C547.169 14.2417 547.145 14.965 547.145 15.735V22.07C547.145 22.8167 547.169 23.54 547.215 24.24C547.285 24.9167 547.472 25.465 547.775 25.885C548.079 26.305 548.592 26.515 549.315 26.515ZM558.444 19.865V17.03H566.249V19.865H558.444ZM575.464 29.28C573.877 29.28 572.652 28.9767 571.789 28.37C570.925 27.74 570.319 26.83 569.969 25.64C569.642 24.4267 569.479 22.945 569.479 21.195V16.575C569.479 14.7783 569.654 13.285 570.004 12.095C570.354 10.905 570.96 10.0067 571.824 9.4C572.71 8.79333 573.924 8.49 575.464 8.49C577.167 8.49 578.415 8.84 579.209 9.54C580.025 10.24 580.562 11.255 580.819 12.585C581.075 13.8917 581.204 15.4667 581.204 17.31V18.955H573.224V23.015C573.224 23.8317 573.294 24.4967 573.434 25.01C573.597 25.5233 573.842 25.9083 574.169 26.165C574.519 26.3983 574.962 26.515 575.499 26.515C576.059 26.515 576.479 26.3867 576.759 26.13C577.062 25.85 577.26 25.465 577.354 24.975C577.47 24.4617 577.529 23.8667 577.529 23.19V21.965H581.169V22.735C581.169 24.765 580.737 26.3633 579.874 27.53C579.01 28.6967 577.54 29.28 575.464 29.28ZM573.224 16.925H577.529V15.105C577.529 14.265 577.482 13.565 577.389 13.005C577.295 12.4217 577.097 11.99 576.794 11.71C576.514 11.4067 576.059 11.255 575.429 11.255C574.822 11.255 574.355 11.395 574.029 11.675C573.725 11.955 573.515 12.4333 573.399 13.11C573.282 13.7633 573.224 14.6733 573.224 15.84V16.925ZM583.02 29L587.57 18.36L583.125 8.77H586.695L589.67 15.175L592.295 8.77H595.97L591.35 18.815L596.04 29H592.47L589.285 22.14L586.555 29H583.02ZM598.444 29V8.77H602.189V29H598.444ZM598.444 5.76V1.84H602.189V5.76H598.444ZM610.887 29.28C609.23 29.28 607.9 28.7667 606.897 27.74C605.893 26.69 605.322 25.3133 605.182 23.61L608.297 22.665C608.483 23.9483 608.798 24.9167 609.242 25.57C609.685 26.2 610.338 26.515 611.202 26.515C611.878 26.515 612.392 26.3283 612.742 25.955C613.092 25.5583 613.267 25.0333 613.267 24.38C613.267 23.7967 613.138 23.2717 612.882 22.805C612.625 22.3383 612.205 21.86 611.622 21.37L608.157 18.395C607.457 17.7883 606.862 17.1117 606.372 16.365C605.905 15.6183 605.672 14.65 605.672 13.46C605.672 12.3867 605.882 11.4883 606.302 10.765C606.745 10.0183 607.352 9.45833 608.122 9.085C608.915 8.68833 609.837 8.49 610.887 8.49C612.497 8.49 613.722 9.015 614.562 10.065C615.425 11.0917 615.915 12.34 616.032 13.81L613.512 14.755C613.418 14.055 613.278 13.4483 613.092 12.935C612.905 12.3983 612.648 11.99 612.322 11.71C611.995 11.4067 611.563 11.255 611.027 11.255C610.42 11.255 609.93 11.465 609.557 11.885C609.207 12.2817 609.032 12.76 609.032 13.32C609.032 13.67 609.102 14.02 609.242 14.37C609.405 14.6967 609.673 15.0233 610.047 15.35L613.617 18.64C614.107 19.0833 614.562 19.5617 614.982 20.075C615.425 20.5883 615.787 21.1717 616.067 21.825C616.347 22.4783 616.487 23.2367 616.487 24.1C616.487 25.2433 616.253 26.2 615.787 26.97C615.32 27.74 614.667 28.3233 613.827 28.72C612.987 29.0933 612.007 29.28 610.887 29.28ZM624.677 29.28C623.627 29.28 622.776 29.0817 622.122 28.685C621.492 28.2883 621.026 27.7283 620.722 27.005C620.442 26.2817 620.302 25.43 620.302 24.45V11.255H618.167V8.77H620.302V2.855H624.047V8.77H627.302V11.255H624.047V24.205C624.047 24.9983 624.176 25.57 624.432 25.92C624.689 26.2467 625.179 26.41 625.902 26.41C626.089 26.41 626.299 26.3983 626.532 26.375C626.789 26.3517 627.034 26.3283 627.267 26.305V29.07C626.801 29.14 626.369 29.1867 625.972 29.21C625.576 29.2567 625.144 29.28 624.677 29.28ZM634.744 29.28C633.087 29.28 631.757 28.7667 630.754 27.74C629.751 26.69 629.179 25.3133 629.039 23.61L632.154 22.665C632.341 23.9483 632.656 24.9167 633.099 25.57C633.542 26.2 634.196 26.515 635.059 26.515C635.736 26.515 636.249 26.3283 636.599 25.955C636.949 25.5583 637.124 25.0333 637.124 24.38C637.124 23.7967 636.996 23.2717 636.739 22.805C636.482 22.3383 636.062 21.86 635.479 21.37L632.014 18.395C631.314 17.7883 630.719 17.1117 630.229 16.365C629.762 15.6183 629.529 14.65 629.529 13.46C629.529 12.3867 629.739 11.4883 630.159 10.765C630.602 10.0183 631.209 9.45833 631.979 9.085C632.772 8.68833 633.694 8.49 634.744 8.49C636.354 8.49 637.579 9.015 638.419 10.065C639.282 11.0917 639.772 12.34 639.889 13.81L637.369 14.755C637.276 14.055 637.136 13.4483 636.949 12.935C636.762 12.3983 636.506 11.99 636.179 11.71C635.852 11.4067 635.421 11.255 634.884 11.255C634.277 11.255 633.787 11.465 633.414 11.885C633.064 12.2817 632.889 12.76 632.889 13.32C632.889 13.67 632.959 14.02 633.099 14.37C633.262 14.6967 633.531 15.0233 633.904 15.35L637.474 18.64C637.964 19.0833 638.419 19.5617 638.839 20.075C639.282 20.5883 639.644 21.1717 639.924 21.825C640.204 22.4783 640.344 23.2367 640.344 24.1C640.344 25.2433 640.111 26.2 639.644 26.97C639.177 27.74 638.524 28.3233 637.684 28.72C636.844 29.0933 635.864 29.28 634.744 29.28Z" fill="white"/>
</svg>
